<svg width="865" height="1080" viewBox="0 0 865 1080" fill="none" xmlns="http://www.w3.org/2000/svg">
<path d="M352.773 569.007C355.755 563.48 363.683 563.481 366.664 569.009L500.417 820.083C507.431 832.428 520.531 840.054 534.725 840.054H666.15C684.354 840.054 695.748 820.36 686.679 804.569L462.631 414.473C458.453 407.199 458.433 398.258 462.578 390.965L698.794 -24.6064C707.77 -40.3963 696.37 -59.9999 678.213 -59.9999L552.325 -59.9999C538.204 -59.9999 525.159 -52.4513 518.118 -40.2057L366.66 238.324C363.67 243.822 355.78 243.821 352.792 238.321L201.511 -40.1896C194.473 -52.4443 181.423 -60 167.295 -60L41.4089 -60C23.254 -60 11.8539 -40.4011 20.8243 -24.6112L256.839 390.829C260.983 398.124 260.96 407.068 256.778 414.341L5.18787 851.931C-3.89076 867.722 7.50282 887.426 25.7119 887.426H157.428C171.619 887.426 184.716 879.804 191.731 867.463L352.773 569.007Z" stroke="#D9FFE0" stroke-width="3"/>
<path d="M773.683 954.536C766.645 942.281 753.595 934.725 739.467 934.725H606.963C588.808 934.725 577.408 954.324 586.379 970.114L671.547 1120.03C678.561 1132.37 691.661 1140 705.855 1140H839.29C857.494 1140 868.888 1120.31 859.819 1104.52L773.683 954.536Z" stroke="#D9FFE0" stroke-width="3"/>
</svg>
