<svg xmlns="http://www.w3.org/2000/svg" xmlns:xlink="http://www.w3.org/1999/xlink">
  <defs>
  <svg width="115" height="20" viewBox="0 0 115 20" fill="none" xmlns="http://www.w3.org/2000/svg" id="navbar-brand-white">
<path d="M100.917 16.1323L99.2672 16.1323C98.9791 16.1323 98.835 15.9948 98.835 15.7198L98.835 5.87716C98.835 5.73309 98.763 5.66105 98.6189 5.66105L96.3792 5.66105C96.1042 5.66105 95.9667 5.52353 95.9667 5.24849L95.9667 3.91256C95.9667 3.63752 96.1042 3.5 96.3792 3.5L103.805 3.5C104.08 3.5 104.218 3.63752 104.218 3.91256L104.218 5.24849C104.218 5.52353 104.081 5.66105 103.805 5.66105L101.566 5.66105C101.409 5.66105 101.33 5.73309 101.33 5.87716L101.33 15.7198C101.33 15.9948 101.193 16.1323 100.917 16.1323Z" fill="white"/>
<path d="M90.8461 16.1323L89.1958 16.1323C88.9077 16.1323 88.7636 15.9948 88.7636 15.7198L88.7636 5.87716C88.7636 5.73309 88.6915 5.66105 88.5475 5.66105L86.3078 5.66105C86.0328 5.66105 85.8953 5.52353 85.8953 5.24849L85.8953 3.91256C85.8953 3.63752 86.0328 3.5 86.3078 3.5L93.734 3.5C94.0091 3.5 94.1466 3.63752 94.1466 3.91256L94.1466 5.24849C94.1466 5.52353 94.0091 5.66105 93.734 5.66105L91.4944 5.66105C91.3372 5.66105 91.2586 5.73309 91.2586 5.87716L91.2586 15.7198C91.2586 15.9948 91.1211 16.1323 90.8461 16.1323Z" fill="white"/>
<path d="M77.3453 16.1323L75.4593 16.1323C75.2236 16.1323 75.145 15.9948 75.2236 15.7198L78.3276 3.91256C78.4193 3.63752 78.6157 3.5 78.917 3.5L81.5299 3.5C81.8573 3.5 82.0538 3.63752 82.1193 3.91256L85.2233 15.7198C85.3019 15.9948 85.2233 16.1323 84.9876 16.1323L83.1016 16.1323C82.9575 16.1323 82.8593 16.1061 82.8069 16.0538C82.7545 15.9883 82.7152 15.8769 82.689 15.7198L82.1389 13.5587L78.308 13.5587L77.7579 15.7198C77.7317 15.8769 77.6858 15.9883 77.6204 16.0538C77.568 16.1061 77.4763 16.1323 77.3453 16.1323ZM80.194 5.87716L78.7795 11.5548L81.6871 11.5548L80.2726 5.87716L80.194 5.87716Z" fill="white"/>
<path d="M64.1012 16.1323L61.456 16.1323C61.1679 16.1323 61.0042 15.9948 60.9649 15.7198L58.8627 3.91257C58.8235 3.63752 58.961 3.5 59.2753 3.5L61.0027 3.5C61.3039 3.5 61.4611 3.63752 61.4742 3.91257L62.7907 13.3574C62.7972 13.4042 62.864 13.4064 62.8736 13.3602L64.8477 3.85363C64.887 3.61788 65.0245 3.5 65.2603 3.5L67.6712 3.5C67.92 3.5 68.0641 3.61133 68.1034 3.83398L70.1357 13.363C70.1455 13.4091 70.2122 13.4067 70.2186 13.3599L71.5162 3.93221C71.5293 3.64407 71.6865 3.5 71.9877 3.5L73.7151 3.5C74.0294 3.5 74.1669 3.64407 74.1276 3.93221L72.0059 15.7198C71.9666 15.9948 71.816 16.1323 71.554 16.1323L68.8892 16.1323C68.6142 16.1323 68.457 15.9948 68.4177 15.7198L66.546 6.70343C66.5367 6.65874 66.473 6.65868 66.4636 6.70334L64.5727 15.7198C64.5203 15.9948 64.3631 16.1323 64.1012 16.1323Z" fill="white"/>
<path d="M44.871 16.1323L42.985 16.1323C42.7492 16.1323 42.6706 15.9948 42.7492 15.7198L45.8533 3.91256C45.9449 3.63752 46.1414 3.5 46.4426 3.5L49.0556 3.5C49.383 3.5 49.5795 3.63752 49.6449 3.91256L52.749 15.7198C52.8276 15.9948 52.749 16.1323 52.5132 16.1323L50.6272 16.1323C50.4832 16.1323 50.3849 16.1061 50.3325 16.0538C50.2802 15.9883 50.2409 15.8769 50.2147 15.7198L49.6646 13.5587L45.8336 13.5587L45.2835 15.7198C45.2573 15.8769 45.2115 15.9883 45.146 16.0538C45.0936 16.1061 45.0019 16.1323 44.871 16.1323ZM47.7196 5.87716L46.3051 11.5548L49.2127 11.5548L47.7982 5.87716L47.7196 5.87716Z" fill="white"/>
<path d="M33.7426 16.1323L32.0727 16.1323C31.7977 16.1323 31.6602 15.9948 31.6602 15.7198L31.6602 3.91256C31.6602 3.63752 31.7977 3.5 32.0727 3.5L36.7484 3.5C37.77 3.5 38.569 3.78159 39.1452 4.34477C39.7215 4.90796 40.0097 5.70034 40.0097 6.72193L40.0097 8.25432C40.0097 9.73431 39.4268 10.7166 38.2612 11.2012L38.2612 11.2798L40.3633 15.6608C40.4812 15.9752 40.3698 16.1323 40.0293 16.1323L38.438 16.1323C38.2022 16.1323 38.032 16.1061 37.9272 16.0538C37.8224 16.0014 37.7373 15.89 37.6718 15.7198L35.7072 11.4763L34.3909 11.4763C34.2338 11.4763 34.1552 11.5483 34.1552 11.6924L34.1552 15.7198C34.1552 15.9948 34.0177 16.1323 33.7426 16.1323ZM34.3713 9.47237L36.2966 9.47237C36.7157 9.47237 37.0235 9.38724 37.2199 9.21697C37.4164 9.03361 37.5146 8.74547 37.5146 8.35255L37.5146 6.82016C37.5146 6.41415 37.4164 6.11946 37.2199 5.9361C37.0235 5.75273 36.7157 5.66105 36.2966 5.66105L34.3713 5.66105C34.2272 5.66105 34.1552 5.73309 34.1552 5.87716L34.1552 9.25626C34.1552 9.40033 34.2272 9.47237 34.3713 9.47237Z" fill="white"/>
<path d="M25.7942 16.1323L24.1439 16.1323C23.8558 16.1323 23.7117 15.9948 23.7117 15.7198L23.7117 5.87716C23.7117 5.73309 23.6397 5.66105 23.4956 5.66105L21.2559 5.66105C20.9809 5.66105 20.8434 5.52353 20.8434 5.24849L20.8434 3.91256C20.8434 3.63752 20.9809 3.5 21.2559 3.5L28.6821 3.5C28.9572 3.5 29.0947 3.63752 29.0947 3.91256L29.0947 5.24849C29.0947 5.52353 28.9572 5.66105 28.6821 5.66105L26.4425 5.66105C26.2853 5.66105 26.2067 5.73309 26.2067 5.87716L26.2067 15.7198C26.2067 15.9948 26.0692 16.1323 25.7942 16.1323Z" fill="white"/>
<path d="M6.83679 16.1323L0.412567 16.1323C0.137524 16.1323 2.18467e-06 15.9948 2.13658e-06 15.7198L7.21351e-08 3.91256C2.4045e-08 3.63752 0.137522 3.5 0.412565 3.5L6.83679 3.5C7.09873 3.5 7.22971 3.63752 7.22971 3.91256L7.22971 5.24849C7.22971 5.52353 7.09873 5.66105 6.83679 5.66105L2.73079 5.66105C2.57362 5.66105 2.49503 5.73309 2.49503 5.87716L2.49504 8.43113C2.49504 8.5752 2.57362 8.64724 2.73079 8.64724L6.09024 8.64724C6.36529 8.64724 6.50281 8.78476 6.50281 9.0598L6.50281 10.3957C6.50281 10.6708 6.36529 10.8083 6.09024 10.8083L2.73079 10.8083C2.57362 10.8083 2.49504 10.8803 2.49504 11.0244L2.49504 13.7552C2.49504 13.8993 2.57362 13.9713 2.73079 13.9713L6.83679 13.9713C7.09873 13.9713 7.22971 14.1088 7.22971 14.3839L7.22971 15.7198C7.22971 15.9948 7.09874 16.1323 6.83679 16.1323Z" fill="white"/>
<path d="M106.281 12.9104L106.281 12.5175C106.281 12.2424 106.418 12.1049 106.693 12.1049L108.363 12.1049C108.638 12.1049 108.776 12.2424 108.776 12.5175L108.776 12.6747C108.776 13.1724 108.874 13.5129 109.071 13.6962C109.267 13.8796 109.627 13.9713 110.151 13.9713L111.074 13.9713C111.585 13.9713 111.939 13.8731 112.135 13.6766C112.345 13.4801 112.45 13.1134 112.45 12.5764L112.45 12.3407C112.45 11.9609 112.292 11.6727 111.978 11.4763C111.677 11.2667 111.297 11.1423 110.839 11.103C110.38 11.0637 109.883 10.9917 109.346 10.8869C108.822 10.769 108.33 10.6249 107.872 10.4547C107.414 10.2713 107.027 9.92422 106.713 9.41343C106.412 8.88954 106.261 8.22158 106.261 7.40954L106.261 6.72194C106.261 5.70035 106.549 4.90796 107.126 4.34478C107.702 3.78159 108.501 3.5 109.522 3.5L111.487 3.5C112.522 3.5 113.327 3.78159 113.903 4.34477C114.48 4.90796 114.768 5.70034 114.768 6.72193L114.768 7.09521C114.768 7.37025 114.63 7.50777 114.355 7.50777L112.685 7.50777C112.41 7.50777 112.273 7.37025 112.273 7.09521L112.273 6.97733C112.273 6.46654 112.175 6.11946 111.978 5.9361C111.782 5.75273 111.421 5.66105 110.898 5.66105L110.131 5.66105C109.594 5.66105 109.228 5.76583 109.031 5.97539C108.848 6.17185 108.756 6.56477 108.756 7.15415L108.756 7.52742C108.756 8.14299 109.293 8.49662 110.367 8.5883C111.48 8.67998 112.469 8.90263 113.334 9.25626C113.792 9.45272 114.172 9.80635 114.473 10.3171C114.787 10.8148 114.945 11.4566 114.945 12.2424L114.945 12.9104C114.945 13.932 114.657 14.7244 114.08 15.2876C113.504 15.8508 112.705 16.1323 111.683 16.1323L109.542 16.1323C108.52 16.1323 107.721 15.8508 107.145 15.2876C106.569 14.7244 106.281 13.932 106.281 12.9104Z" fill="white"/>
<path d="M14.0478 11.8868C14.0875 11.8131 14.1933 11.8131 14.233 11.8868L16.0171 15.2344C16.1106 15.399 16.2854 15.5007 16.4747 15.5007H18.2277C18.4705 15.5007 18.6225 15.2381 18.5015 15.0276L15.5131 9.8263C15.4574 9.72932 15.4571 9.6101 15.5124 9.51287L18.6631 3.97192C18.7828 3.76138 18.6308 3.5 18.3886 3.5L16.7095 3.5C16.5211 3.5 16.3471 3.60065 16.2532 3.76392L14.233 7.47766C14.1931 7.55096 14.0879 7.55094 14.048 7.47761L12.0302 3.76414C11.9363 3.60074 11.7622 3.5 11.5738 3.5L9.89467 3.5C9.65251 3.5 9.50045 3.76132 9.6201 3.97185L12.7682 9.51105C12.8234 9.60832 12.8231 9.72757 12.7673 9.82455L9.41154 15.6591C9.29045 15.8696 9.44242 16.1323 9.6853 16.1323H11.4422C11.6315 16.1323 11.8062 16.0307 11.8997 15.8662L14.0478 11.8868Z" fill="white"/>
<path d="M19.662 17.0271C19.5681 16.8637 19.394 16.763 19.2056 16.763H17.4382C17.1961 16.763 17.044 17.0243 17.1637 17.2349L18.2997 19.2337C18.3932 19.3983 18.5679 19.5 18.7573 19.5H20.5371C20.7799 19.5 20.9319 19.2374 20.8109 19.0269L19.662 17.0271Z" fill="#7ACB88"/>
</svg>

<svg width="14" height="14" viewBox="0 0 14 14" fill="none" xmlns="http://www.w3.org/2000/svg" id="close">
<path d="M7 8.47597L12.524 14L14 12.524L8.47597 7L14 1.47597L12.524 0L7 5.52403L1.47597 0L1.99064e-06 1.47597L5.52403 7L0 12.524L1.47597 14L7 8.47597Z" fill="white"/>
</svg>


  <svg width="115" height="20" viewBox="0 0 115 20" fill="none" xmlns="http://www.w3.org/2000/svg" id="navbar-brand">
<path d="M100.917 16.1323L99.2672 16.1323C98.9791 16.1323 98.835 15.9948 98.835 15.7198L98.835 5.87716C98.835 5.73309 98.763 5.66105 98.6189 5.66105L96.3792 5.66105C96.1042 5.66105 95.9667 5.52353 95.9667 5.24849L95.9667 3.91256C95.9667 3.63752 96.1042 3.5 96.3792 3.5L103.805 3.5C104.08 3.5 104.218 3.63752 104.218 3.91256L104.218 5.24849C104.218 5.52353 104.081 5.66105 103.805 5.66105L101.566 5.66105C101.409 5.66105 101.33 5.73309 101.33 5.87716L101.33 15.7198C101.33 15.9948 101.193 16.1323 100.917 16.1323Z" fill="#221A33"/>
<path d="M90.8461 16.1323L89.1958 16.1323C88.9077 16.1323 88.7636 15.9948 88.7636 15.7198L88.7636 5.87716C88.7636 5.73309 88.6915 5.66105 88.5475 5.66105L86.3078 5.66105C86.0328 5.66105 85.8953 5.52353 85.8953 5.24849L85.8953 3.91256C85.8953 3.63752 86.0328 3.5 86.3078 3.5L93.734 3.5C94.0091 3.5 94.1466 3.63752 94.1466 3.91256L94.1466 5.24849C94.1466 5.52353 94.0091 5.66105 93.734 5.66105L91.4944 5.66105C91.3372 5.66105 91.2586 5.73309 91.2586 5.87716L91.2586 15.7198C91.2586 15.9948 91.1211 16.1323 90.8461 16.1323Z" fill="#221A33"/>
<path d="M77.3453 16.1323L75.4593 16.1323C75.2236 16.1323 75.145 15.9948 75.2236 15.7198L78.3276 3.91256C78.4193 3.63752 78.6157 3.5 78.917 3.5L81.5299 3.5C81.8573 3.5 82.0538 3.63752 82.1193 3.91256L85.2233 15.7198C85.3019 15.9948 85.2233 16.1323 84.9876 16.1323L83.1016 16.1323C82.9575 16.1323 82.8593 16.1061 82.8069 16.0538C82.7545 15.9883 82.7152 15.8769 82.689 15.7198L82.1389 13.5587L78.308 13.5587L77.7579 15.7198C77.7317 15.8769 77.6858 15.9883 77.6204 16.0538C77.568 16.1061 77.4763 16.1323 77.3453 16.1323ZM80.194 5.87716L78.7795 11.5548L81.6871 11.5548L80.2726 5.87716L80.194 5.87716Z" fill="#221A33"/>
<path d="M64.1012 16.1323L61.456 16.1323C61.1679 16.1323 61.0042 15.9948 60.9649 15.7198L58.8627 3.91257C58.8235 3.63752 58.961 3.5 59.2753 3.5L61.0027 3.5C61.3039 3.5 61.4611 3.63752 61.4742 3.91257L62.7907 13.3574C62.7972 13.4042 62.864 13.4064 62.8736 13.3602L64.8477 3.85363C64.887 3.61788 65.0245 3.5 65.2603 3.5L67.6712 3.5C67.92 3.5 68.0641 3.61133 68.1034 3.83398L70.1357 13.363C70.1455 13.4091 70.2122 13.4067 70.2186 13.3599L71.5162 3.93221C71.5293 3.64407 71.6865 3.5 71.9877 3.5L73.7151 3.5C74.0294 3.5 74.1669 3.64407 74.1276 3.93221L72.0059 15.7198C71.9666 15.9948 71.816 16.1323 71.554 16.1323L68.8892 16.1323C68.6142 16.1323 68.457 15.9948 68.4177 15.7198L66.546 6.70343C66.5367 6.65874 66.473 6.65868 66.4636 6.70334L64.5727 15.7198C64.5203 15.9948 64.3631 16.1323 64.1012 16.1323Z" fill="#221A33"/>
<path d="M44.871 16.1323L42.985 16.1323C42.7492 16.1323 42.6706 15.9948 42.7492 15.7198L45.8533 3.91256C45.9449 3.63752 46.1414 3.5 46.4426 3.5L49.0556 3.5C49.383 3.5 49.5795 3.63752 49.6449 3.91256L52.749 15.7198C52.8276 15.9948 52.749 16.1323 52.5132 16.1323L50.6272 16.1323C50.4832 16.1323 50.3849 16.1061 50.3325 16.0538C50.2802 15.9883 50.2409 15.8769 50.2147 15.7198L49.6646 13.5587L45.8336 13.5587L45.2835 15.7198C45.2573 15.8769 45.2115 15.9883 45.146 16.0538C45.0936 16.1061 45.0019 16.1323 44.871 16.1323ZM47.7196 5.87716L46.3051 11.5548L49.2127 11.5548L47.7982 5.87716L47.7196 5.87716Z" fill="#221A33"/>
<path d="M33.7426 16.1323L32.0727 16.1323C31.7977 16.1323 31.6602 15.9948 31.6602 15.7198L31.6602 3.91256C31.6602 3.63752 31.7977 3.5 32.0727 3.5L36.7484 3.5C37.77 3.5 38.569 3.78159 39.1452 4.34477C39.7215 4.90796 40.0097 5.70034 40.0097 6.72193L40.0097 8.25432C40.0097 9.73431 39.4268 10.7166 38.2612 11.2012L38.2612 11.2798L40.3633 15.6608C40.4812 15.9752 40.3698 16.1323 40.0293 16.1323L38.438 16.1323C38.2022 16.1323 38.032 16.1061 37.9272 16.0538C37.8224 16.0014 37.7373 15.89 37.6718 15.7198L35.7072 11.4763L34.3909 11.4763C34.2338 11.4763 34.1552 11.5483 34.1552 11.6924L34.1552 15.7198C34.1552 15.9948 34.0177 16.1323 33.7426 16.1323ZM34.3713 9.47237L36.2966 9.47237C36.7157 9.47237 37.0235 9.38724 37.2199 9.21697C37.4164 9.03361 37.5146 8.74547 37.5146 8.35255L37.5146 6.82016C37.5146 6.41415 37.4164 6.11946 37.2199 5.9361C37.0235 5.75273 36.7157 5.66105 36.2966 5.66105L34.3713 5.66105C34.2272 5.66105 34.1552 5.73309 34.1552 5.87716L34.1552 9.25626C34.1552 9.40033 34.2272 9.47237 34.3713 9.47237Z" fill="#221A33"/>
<path d="M25.7942 16.1323L24.1439 16.1323C23.8558 16.1323 23.7117 15.9948 23.7117 15.7198L23.7117 5.87716C23.7117 5.73309 23.6397 5.66105 23.4956 5.66105L21.2559 5.66105C20.9809 5.66105 20.8434 5.52353 20.8434 5.24849L20.8434 3.91256C20.8434 3.63752 20.9809 3.5 21.2559 3.5L28.6821 3.5C28.9572 3.5 29.0947 3.63752 29.0947 3.91256L29.0947 5.24849C29.0947 5.52353 28.9572 5.66105 28.6821 5.66105L26.4425 5.66105C26.2853 5.66105 26.2067 5.73309 26.2067 5.87716L26.2067 15.7198C26.2067 15.9948 26.0692 16.1323 25.7942 16.1323Z" fill="#221A33"/>
<path d="M6.83679 16.1323L0.412567 16.1323C0.137524 16.1323 2.18467e-06 15.9948 2.13658e-06 15.7198L7.21351e-08 3.91256C2.4045e-08 3.63752 0.137522 3.5 0.412565 3.5L6.83679 3.5C7.09873 3.5 7.22971 3.63752 7.22971 3.91256L7.22971 5.24849C7.22971 5.52353 7.09873 5.66105 6.83679 5.66105L2.73079 5.66105C2.57362 5.66105 2.49503 5.73309 2.49503 5.87716L2.49504 8.43113C2.49504 8.5752 2.57362 8.64724 2.73079 8.64724L6.09024 8.64724C6.36529 8.64724 6.50281 8.78476 6.50281 9.0598L6.50281 10.3957C6.50281 10.6708 6.36529 10.8083 6.09024 10.8083L2.73079 10.8083C2.57362 10.8083 2.49504 10.8803 2.49504 11.0244L2.49504 13.7552C2.49504 13.8993 2.57362 13.9713 2.73079 13.9713L6.83679 13.9713C7.09873 13.9713 7.22971 14.1088 7.22971 14.3839L7.22971 15.7198C7.22971 15.9948 7.09874 16.1323 6.83679 16.1323Z" fill="#221A33"/>
<path d="M106.281 12.9104L106.281 12.5175C106.281 12.2424 106.418 12.1049 106.693 12.1049L108.363 12.1049C108.638 12.1049 108.776 12.2424 108.776 12.5175L108.776 12.6747C108.776 13.1724 108.874 13.5129 109.071 13.6962C109.267 13.8796 109.627 13.9713 110.151 13.9713L111.074 13.9713C111.585 13.9713 111.939 13.8731 112.135 13.6766C112.345 13.4801 112.45 13.1134 112.45 12.5764L112.45 12.3407C112.45 11.9609 112.292 11.6727 111.978 11.4763C111.677 11.2667 111.297 11.1423 110.839 11.103C110.38 11.0637 109.883 10.9917 109.346 10.8869C108.822 10.769 108.33 10.6249 107.872 10.4547C107.414 10.2713 107.027 9.92422 106.713 9.41343C106.412 8.88954 106.261 8.22158 106.261 7.40954L106.261 6.72194C106.261 5.70035 106.549 4.90796 107.126 4.34478C107.702 3.78159 108.501 3.5 109.522 3.5L111.487 3.5C112.522 3.5 113.327 3.78159 113.903 4.34477C114.48 4.90796 114.768 5.70034 114.768 6.72193L114.768 7.09521C114.768 7.37025 114.63 7.50777 114.355 7.50777L112.685 7.50777C112.41 7.50777 112.273 7.37025 112.273 7.09521L112.273 6.97733C112.273 6.46654 112.175 6.11946 111.978 5.9361C111.782 5.75273 111.421 5.66105 110.898 5.66105L110.131 5.66105C109.594 5.66105 109.228 5.76583 109.031 5.97539C108.848 6.17185 108.756 6.56477 108.756 7.15415L108.756 7.52742C108.756 8.14299 109.293 8.49662 110.367 8.5883C111.48 8.67998 112.469 8.90263 113.334 9.25626C113.792 9.45272 114.172 9.80635 114.473 10.3171C114.787 10.8148 114.945 11.4566 114.945 12.2424L114.945 12.9104C114.945 13.932 114.657 14.7244 114.08 15.2876C113.504 15.8508 112.705 16.1323 111.683 16.1323L109.542 16.1323C108.52 16.1323 107.721 15.8508 107.145 15.2876C106.569 14.7244 106.281 13.932 106.281 12.9104Z" fill="#221A33"/>
<path d="M14.0478 11.8868C14.0875 11.8131 14.1933 11.8131 14.233 11.8868L16.0171 15.2344C16.1106 15.399 16.2854 15.5007 16.4747 15.5007H18.2277C18.4705 15.5007 18.6225 15.2381 18.5015 15.0276L15.5131 9.8263C15.4574 9.72932 15.4571 9.6101 15.5124 9.51287L18.6631 3.97192C18.7828 3.76138 18.6308 3.5 18.3886 3.5L16.7095 3.5C16.5211 3.5 16.3471 3.60065 16.2532 3.76392L14.233 7.47766C14.1931 7.55096 14.0879 7.55094 14.048 7.47761L12.0302 3.76414C11.9363 3.60074 11.7622 3.5 11.5738 3.5L9.89467 3.5C9.65251 3.5 9.50045 3.76132 9.6201 3.97185L12.7682 9.51105C12.8234 9.60832 12.8231 9.72757 12.7673 9.82455L9.41154 15.6591C9.29045 15.8696 9.44242 16.1323 9.6853 16.1323H11.4422C11.6315 16.1323 11.8062 16.0307 11.8997 15.8662L14.0478 11.8868Z" fill="#221A33"/>
<path d="M19.662 17.0271C19.5681 16.8637 19.394 16.763 19.2056 16.763H17.4382C17.1961 16.763 17.044 17.0243 17.1637 17.2349L18.2997 19.2337C18.3932 19.3983 18.5679 19.5 18.7573 19.5H20.5371C20.7799 19.5 20.9319 19.2374 20.8109 19.0269L19.662 17.0271Z" fill="#7ACB88"/>
</svg>


<symbol width="450" height="75" viewBox="0 0 450 75" fill="none" xmlns="http://www.w3.org/2000/svg" id="extra-watts-large">
<path d="M394.894 61.1701L388.437 61.1701C387.309 61.1701 386.746 60.6319 386.746 59.5557L386.746 21.0411C386.746 20.4773 386.464 20.1954 385.9 20.1954L377.136 20.1954C376.06 20.1954 375.522 19.6573 375.522 18.5811L375.522 13.3535C375.522 12.2773 376.06 11.7391 377.136 11.7391L406.195 11.7391C407.271 11.7391 407.81 12.2773 407.81 13.3535L407.81 18.581C407.81 19.6573 407.271 20.1954 406.195 20.1954L397.431 20.1954C396.816 20.1954 396.509 20.4773 396.509 21.0411L396.509 59.5557C396.509 60.6319 395.971 61.1701 394.894 61.1701Z" fill="#221A33"/>
<path d="M355.485 61.1701L349.027 61.1701C347.9 61.1701 347.336 60.6319 347.336 59.5557L347.336 21.0411C347.336 20.4773 347.054 20.1954 346.49 20.1954L337.726 20.1954C336.65 20.1954 336.112 19.6573 336.112 18.5811L336.112 13.3535C336.112 12.2773 336.65 11.7391 337.726 11.7391L366.785 11.7391C367.862 11.7391 368.4 12.2773 368.4 13.3535L368.4 18.581C368.4 19.6573 367.862 20.1954 366.785 20.1954L358.022 20.1954C357.407 20.1954 357.099 20.4773 357.099 21.0411L357.099 59.5557C357.099 60.6319 356.561 61.1701 355.485 61.1701Z" fill="#221A33"/>
<path d="M302.656 61.17L295.276 61.17C294.353 61.17 294.046 60.6319 294.353 59.5557L306.499 13.3535C306.858 12.2773 307.627 11.7391 308.806 11.7391L319.03 11.7391C320.311 11.7391 321.08 12.2773 321.336 13.3535L333.483 59.5557C333.79 60.6319 333.483 61.17 332.56 61.17L325.18 61.17C324.616 61.17 324.232 61.0675 324.027 60.8625C323.822 60.6063 323.668 60.1707 323.566 59.5557L321.413 51.0994L306.423 51.0994L304.27 59.5557C304.168 60.1707 303.988 60.6063 303.732 60.8625C303.527 61.0675 303.168 61.17 302.656 61.17ZM313.803 21.0411L308.268 43.2581L319.645 43.2581L314.11 21.0411L313.803 21.0411Z" fill="#221A33"/>
<path d="M250.831 61.1701L240.48 61.1701C239.353 61.1701 238.712 60.6319 238.558 59.5557L230.333 13.3535C230.179 12.2773 230.717 11.7391 231.947 11.7391L238.706 11.7391C239.885 11.7391 240.5 12.2773 240.551 13.3535L245.703 50.3116C245.728 50.4947 245.989 50.5034 246.027 50.3224L253.752 13.1229C253.906 12.2004 254.444 11.7391 255.366 11.7391L264.8 11.7391C265.774 11.7391 266.338 12.1748 266.491 13.046L274.444 50.3334C274.483 50.5139 274.743 50.5043 274.768 50.3215L279.846 13.4304C279.897 12.3029 280.512 11.7391 281.691 11.7391L288.45 11.7391C289.68 11.7391 290.218 12.3029 290.065 13.4304L281.762 59.5557C281.608 60.6319 281.019 61.1701 279.994 61.1701L269.566 61.1701C268.49 61.1701 267.875 60.6319 267.721 59.5557L260.398 24.2743C260.361 24.0994 260.112 24.0992 260.075 24.274L252.676 59.5557C252.471 60.6319 251.856 61.1701 250.831 61.1701Z" fill="#221A33"/>
<path d="M175.582 61.17L168.202 61.17C167.28 61.17 166.972 60.6319 167.28 59.5557L179.426 13.3535C179.785 12.2773 180.553 11.7391 181.732 11.7391L191.957 11.7391C193.238 11.7391 194.007 12.2773 194.263 13.3535L206.409 59.5557C206.717 60.6319 206.409 61.17 205.487 61.17L198.107 61.17C197.543 61.17 197.158 61.0675 196.953 60.8625C196.748 60.6063 196.595 60.1707 196.492 59.5557L194.34 51.0994L179.349 51.0994L177.196 59.5557C177.094 60.1707 176.915 60.6063 176.658 60.8625C176.453 61.0675 176.095 61.17 175.582 61.17ZM186.729 21.0411L181.194 43.2581L192.572 43.2581L187.037 21.0411L186.729 21.0411Z" fill="#221A33"/>
<path d="M132.036 61.17L125.502 61.17C124.426 61.17 123.888 60.6319 123.888 59.5557L123.888 13.3535C123.888 12.2773 124.426 11.7391 125.502 11.7391L143.798 11.7391C147.796 11.7391 150.922 12.841 153.177 15.0448C155.432 17.2485 156.56 20.3492 156.56 24.3467L156.56 30.343C156.56 36.1343 154.279 39.978 149.718 41.8743L149.718 42.1818L157.943 59.325C158.405 60.555 157.969 61.17 156.637 61.17L150.41 61.17C149.487 61.17 148.821 61.0675 148.411 60.8625C148.001 60.6575 147.668 60.2219 147.412 59.5557L139.724 42.9506L134.573 42.9506C133.958 42.9506 133.651 43.2324 133.651 43.7962L133.651 59.5557C133.651 60.6319 133.113 61.17 132.036 61.17ZM134.496 35.1093L142.03 35.1093C143.67 35.1093 144.875 34.7761 145.643 34.1099C146.412 33.3924 146.797 32.2649 146.797 30.7274L146.797 24.7311C146.797 23.1423 146.412 21.9892 145.643 21.2717C144.875 20.5542 143.67 20.1954 142.03 20.1954L134.496 20.1954C133.933 20.1954 133.651 20.4773 133.651 21.0411L133.651 34.2636C133.651 34.8274 133.933 35.1093 134.496 35.1093Z" fill="#221A33"/>
<path d="M100.934 61.1701L94.4761 61.1701C93.3486 61.1701 92.7849 60.6319 92.7849 59.5557L92.7849 21.0411C92.7849 20.4773 92.503 20.1954 91.9392 20.1954L83.1754 20.1954C82.0992 20.1954 81.561 19.6573 81.561 18.5811L81.561 13.3535C81.561 12.2773 82.0992 11.7391 83.1754 11.7391L112.234 11.7391C113.311 11.7391 113.849 12.2773 113.849 13.3535L113.849 18.581C113.849 19.6573 113.311 20.1954 112.234 20.1954L103.471 20.1954C102.856 20.1954 102.548 20.4773 102.548 21.0411L102.548 59.5557C102.548 60.6319 102.01 61.1701 100.934 61.1701Z" fill="#221A33"/>
<path d="M26.7527 61.17L1.61439 61.1701C0.538136 61.1701 8.5487e-06 60.6319 8.36052e-06 59.5557L2.82268e-07 13.3535C9.40893e-08 12.2773 0.538128 11.7391 1.61438 11.7391L26.7526 11.7391C27.7776 11.7391 28.2902 12.2773 28.2902 13.3535L28.2902 18.581C28.2902 19.6573 27.7776 20.1954 26.7526 20.1954L10.6857 20.1954C10.0707 20.1954 9.76318 20.4773 9.76318 21.0411L9.76318 31.0349C9.76318 31.5986 10.0707 31.8805 10.6857 31.8805L23.8314 31.8805C24.9076 31.8805 25.4458 32.4186 25.4458 33.4949L25.4458 38.7224C25.4458 39.7987 24.9076 40.3368 23.8314 40.3368L10.6857 40.3368C10.0707 40.3368 9.76318 40.6187 9.76318 41.1824L9.76318 51.8681C9.76318 52.4319 10.0707 52.7137 10.6857 52.7137L26.7526 52.7137C27.7777 52.7137 28.2902 53.2519 28.2902 54.3281L28.2902 59.5557C28.2902 60.6319 27.7777 61.17 26.7527 61.17Z" fill="#221A33"/>
<path d="M415.881 48.5625L415.881 47.025C415.881 45.9487 416.419 45.4106 417.496 45.4106L424.03 45.4106C425.106 45.4106 425.644 45.9487 425.644 47.025L425.644 47.64C425.644 49.5875 426.029 50.92 426.798 51.6375C427.566 52.355 428.976 52.7137 431.026 52.7137L434.639 52.7137C436.638 52.7137 438.021 52.3294 438.79 51.5606C439.61 50.7919 440.02 49.3568 440.02 47.2556L440.02 46.3331C440.02 44.8468 439.405 43.7193 438.175 42.9506C436.996 42.1306 435.51 41.6437 433.716 41.4899C431.923 41.3362 429.975 41.0543 427.874 40.6443C425.824 40.183 423.902 39.6193 422.108 38.953C420.314 38.2355 418.803 36.8774 417.573 34.8786C416.394 32.8286 415.804 30.2149 415.804 27.0373L415.804 24.3467C415.804 20.3492 416.932 17.2485 419.187 15.0448C421.442 12.841 424.568 11.7391 428.566 11.7391L436.253 11.7391C440.302 11.7391 443.454 12.841 445.709 15.0448C447.964 17.2485 449.092 20.3492 449.092 24.3467L449.092 25.8073C449.092 26.8836 448.553 27.4217 447.477 27.4217L440.943 27.4217C439.866 27.4217 439.328 26.8836 439.328 25.8073L439.328 25.3461C439.328 23.3473 438.944 21.9892 438.175 21.2717C437.406 20.5542 435.997 20.1954 433.947 20.1954L430.949 20.1954C428.848 20.1954 427.413 20.6054 426.644 21.4254C425.926 22.1942 425.568 23.7317 425.568 26.038L425.568 27.4986C425.568 29.9074 427.669 31.2911 431.871 31.6499C436.228 32.0086 440.097 32.8799 443.48 34.2636C445.273 35.0324 446.76 36.4161 447.938 38.4149C449.168 40.3624 449.783 42.8737 449.783 45.9487L449.783 48.5625C449.783 52.56 448.656 55.6606 446.401 57.8644C444.146 60.0682 441.02 61.17 437.022 61.17L428.643 61.17C424.645 61.17 421.519 60.0682 419.264 57.8644C417.009 55.6606 415.881 52.56 415.881 48.5625Z" fill="#221A33"/>
<path d="M54.9695 44.5569C55.1251 44.2685 55.5389 44.2686 55.6945 44.557L62.6756 57.6565C63.0416 58.3006 63.7254 58.6985 64.4662 58.6985H71.3257C72.2759 58.6985 72.8706 57.6709 72.3973 56.8471L60.7034 36.4942C60.4853 36.1147 60.4843 35.6482 60.7006 35.2678L73.0296 13.5858C73.498 12.7619 72.903 11.7391 71.9554 11.7391L65.3848 11.7391C64.6478 11.7391 63.9669 12.133 63.5995 12.7719L55.6943 27.3039C55.5382 27.5907 55.1264 27.5906 54.9705 27.3037L47.0746 12.7727C46.7072 12.1333 46.0261 11.7391 45.2887 11.7391L38.7183 11.7391C37.7707 11.7391 37.1757 12.7617 37.6439 13.5855L49.9623 35.2606C50.1787 35.6413 50.1775 36.1079 49.9592 36.4874L36.8278 59.3182C36.3539 60.142 36.9486 61.1701 37.899 61.1701H44.7737C45.5144 61.1701 46.198 60.7724 46.5641 60.1285L54.9695 44.5569Z" fill="#221A33"/>
<path d="M76.9383 64.6714C76.571 64.032 75.8898 63.6378 75.1524 63.6378H68.2366C67.289 63.6378 66.694 64.6604 67.1622 65.4842L71.6075 73.3059C71.9735 73.95 72.6573 74.3478 73.3981 74.3478H80.3626C81.3127 74.3478 81.9074 73.3203 81.4341 72.4964L76.9383 64.6714Z" fill="#7ACB88"/>
</symbol>

<symbol width="20" height="12" viewBox="0 0 20 12" fill="none" xmlns="http://www.w3.org/2000/svg" id="social-link">
<path d="M5.64062 0C8.75781 0 11.2812 2.68226 11.2812 6C11.2812 9.31774 8.75781 12 5.64062 12C2.52344 12 0 9.30949 0 6C0 2.69051 2.52344 0 5.64062 0Z" fill="#7ACB88"/>
<path d="M14.6484 0.354883C16.2031 0.354883 17.4688 2.88033 17.4688 6C17.4688 9.11967 16.2031 11.6451 14.6484 11.6451C13.0938 11.6451 11.8281 9.11967 11.8281 6C11.8281 2.88033 13.0938 0.354883 14.6484 0.354883Z" fill="#7ACB88"/>
<path d="M19.0078 0.940853C19.5547 0.940853 20 3.2022 20 6C20 8.7978 19.5547 11.0591 19.0078 11.0591C18.4609 11.0591 18.0156 8.78955 18.0156 6C18.0156 3.21045 18.4609 0.940853 19.0078 0.940853Z" fill="#7ACB88"/>
</symbol>

<symbol width="18" height="18" viewBox="0 0 18 18" fill="none" xmlns="http://www.w3.org/2000/svg" id="linkedin">
<path d="M16.6676 0H1.32891C0.594141 0 0 0.580078 0 1.29727V16.6992C0 17.4164 0.594141 18 1.32891 18H16.6676C17.4023 18 18 17.4164 18 16.7027V1.29727C18 0.580078 17.4023 0 16.6676 0ZM5.34023 15.3387H2.66836V6.74648H5.34023V15.3387ZM4.0043 5.57578C3.14648 5.57578 2.45391 4.8832 2.45391 4.02891C2.45391 3.17461 3.14648 2.48203 4.0043 2.48203C4.85859 2.48203 5.55117 3.17461 5.55117 4.02891C5.55117 4.87969 4.85859 5.57578 4.0043 5.57578ZM15.3387 15.3387H12.6703V11.1621C12.6703 10.1672 12.6527 8.88398 11.2816 8.88398C9.89297 8.88398 9.68203 9.97031 9.68203 11.0918V15.3387H7.01719V6.74648H9.57656V7.9207H9.61172C9.9668 7.2457 10.8387 6.53203 12.1359 6.53203C14.8395 6.53203 15.3387 8.31094 15.3387 10.6242V15.3387Z" fill="#221A33"/>
</symbol>


<svg width="20" height="16" viewBox="0 0 20 16" fill="none" xmlns="http://www.w3.org/2000/svg" id="twitter">
<path d="M6.2896 16C13.8368 16 17.9648 9.84379 17.9648 4.50515C17.9648 4.3303 17.9648 4.15623 17.9528 3.98295C18.7559 3.41105 19.4491 2.70293 20 1.89176C19.2512 2.21863 18.4567 2.4329 17.6432 2.52738C18.4998 2.02255 19.141 1.22842 19.4472 0.292845C18.6417 0.763468 17.7605 1.09511 16.8416 1.27346C16.2229 0.62577 15.4047 0.196886 14.5135 0.0531763C13.6223 -0.090533 12.7078 0.0589443 11.9116 0.478477C11.1154 0.89801 10.4819 1.56421 10.109 2.37398C9.73605 3.18376 9.64462 4.09196 9.8488 4.95805C8.21741 4.87748 6.62146 4.46005 5.16455 3.73288C3.70763 3.0057 2.4223 1.98501 1.392 0.737075C0.867274 1.62645 0.70656 2.67929 0.942583 3.68123C1.17861 4.68318 1.79362 5.55888 2.6624 6.13006C2.00936 6.11122 1.37054 5.93777 0.8 5.62439V5.67559C0.800259 6.60833 1.12821 7.51227 1.72823 8.23409C2.32824 8.9559 3.16338 9.45116 4.092 9.63585C3.4879 9.79809 2.85406 9.8218 2.2392 9.70517C2.50151 10.5078 3.01202 11.2098 3.69937 11.7128C4.38671 12.2158 5.21652 12.4948 6.0728 12.5107C5.22203 13.1691 4.24776 13.6559 3.20573 13.9433C2.16369 14.2306 1.07435 14.3128 0 14.1853C1.87653 15.3709 4.05994 15.9997 6.2896 15.9969" fill="#221A33"/>
</svg>

<symbol width="58" height="19" viewBox="0 0 58 19" fill="none" xmlns="http://www.w3.org/2000/svg" id="kriptopara">
<path d="M0.838823 12.7894C0.76876 12.7894 0.698695 12.7647 0.628633 12.6906C0.581924 12.6412 0.535217 12.567 0.535217 12.4682V4.26676C0.535217 4.19265 0.55857 4.11854 0.628633 4.04443C0.675341 3.99502 0.745406 3.94562 0.838823 3.94562H1.79634C1.88976 3.94562 1.95982 3.97032 2.00653 4.04443C2.05324 4.09384 2.0766 4.16795 2.0766 4.26676V8.51571L4.03835 6.53946C4.10841 6.46535 4.17847 6.41594 4.22518 6.39123C4.27189 6.34183 4.36531 6.34183 4.45872 6.34183H5.55637C5.62643 6.34183 5.69649 6.36653 5.7432 6.41594C5.78991 6.46535 5.81327 6.53946 5.81327 6.61357C5.81327 6.63827 5.81326 6.68768 5.78991 6.73708C5.76656 6.78649 5.7432 6.81119 5.6965 6.8606L3.29101 9.25681L6.0001 12.32C6.07016 12.3941 6.11687 12.4682 6.11687 12.5423C6.11687 12.6164 6.09352 12.6906 6.04681 12.74C6.0001 12.7894 5.93004 12.8141 5.85997 12.8141H4.73897C4.6222 12.8141 4.52878 12.7894 4.48207 12.7647C4.43537 12.7153 4.36531 12.6658 4.29524 12.6164L2.05324 10.1214V12.5176C2.05324 12.5917 2.02989 12.6658 1.98318 12.74C1.93647 12.7894 1.86641 12.8388 1.77299 12.8388H0.838823V12.7894Z" fill="#221A33"/>
<path d="M7.28457 12.7894C7.21451 12.7894 7.14445 12.7647 7.07439 12.6906C7.02768 12.6412 6.98097 12.5671 6.98097 12.4682V6.63828C6.98097 6.53947 7.00433 6.46536 7.07439 6.41595C7.1211 6.36655 7.19116 6.31714 7.28457 6.31714H8.2421C8.31216 6.31714 8.38222 6.34184 8.45228 6.41595C8.52235 6.46536 8.5457 6.53947 8.5457 6.63828V7.15705C8.73254 6.88531 8.96608 6.68769 9.24633 6.53947C9.52658 6.39125 9.85354 6.31714 10.2272 6.31714H10.7176C10.8111 6.31714 10.8811 6.34184 10.9278 6.41595C10.9745 6.46536 10.9979 6.53947 10.9979 6.63828V7.5276C10.9979 7.60171 10.9745 7.67582 10.9278 7.74993C10.8811 7.79933 10.8111 7.84874 10.7176 7.84874H9.80683C9.43316 7.84874 9.12956 7.94755 8.94272 8.16988C8.73253 8.39221 8.63912 8.68865 8.63912 9.0839V12.4929C8.63912 12.5671 8.61576 12.6412 8.5457 12.7153C8.49899 12.7647 8.42893 12.8141 8.33551 12.8141H7.28457V12.7894Z" fill="#221A33"/>
<path d="M12.1189 5.27963C12.0488 5.27963 11.9788 5.25493 11.9087 5.20552C11.862 5.15611 11.8153 5.082 11.8153 4.98319V4.09387C11.8153 4.01976 11.8386 3.94566 11.9087 3.87155C11.9554 3.82214 12.0255 3.77274 12.1189 3.77274H13.1932C13.2866 3.77274 13.3567 3.79744 13.4034 3.87155C13.4501 3.92095 13.4968 3.99506 13.4968 4.09387V4.98319C13.4968 5.0573 13.4734 5.13141 13.4034 5.20552C13.3567 5.25493 13.2866 5.27963 13.1932 5.27963H12.1189ZM12.1656 12.7894C12.0955 12.7894 12.0255 12.7647 11.9554 12.6906C11.9087 12.6412 11.862 12.5671 11.862 12.4683V6.6136C11.862 6.5395 11.8854 6.46538 11.9554 6.39127C12.0021 6.34187 12.0722 6.29246 12.1656 6.29246H13.1465C13.2399 6.29246 13.31 6.31716 13.3567 6.39127C13.4034 6.44068 13.4267 6.51479 13.4267 6.6136V12.4683C13.4267 12.5424 13.4034 12.6165 13.3567 12.6906C13.31 12.74 13.2399 12.7894 13.1465 12.7894H12.1656Z" fill="#221A33"/>
<path d="M15.2718 15.1362C15.2017 15.1362 15.1316 15.1115 15.0616 15.0621C15.0149 15.0127 14.9682 14.9386 14.9682 14.8398V6.63829C14.9682 6.56418 14.9915 6.49007 15.0616 6.41597C15.1083 6.36656 15.1784 6.31715 15.2718 6.31715H16.2059C16.2994 6.31715 16.3694 6.34186 16.4161 6.41597C16.4628 6.46537 16.4862 6.53948 16.4862 6.63829V7.13236C16.673 6.86062 16.9299 6.63829 17.2335 6.46537C17.5371 6.29245 17.9108 6.19363 18.3779 6.19363C18.7983 6.19363 19.1486 6.26775 19.4522 6.41597C19.7558 6.56418 20.0127 6.76181 20.2229 7.00884C20.433 7.28058 20.5732 7.57701 20.6899 7.92286C20.8067 8.2687 20.8534 8.66396 20.8768 9.10861C20.8768 9.25683 20.9001 9.40505 20.9001 9.55327C20.9001 9.70149 20.9001 9.84971 20.8768 9.99793C20.8768 10.4179 20.8067 10.7884 20.6899 11.1343C20.5732 11.4801 20.433 11.8013 20.2229 12.0483C20.0127 12.32 19.7558 12.5177 19.4522 12.6659C19.1486 12.8141 18.7983 12.8882 18.3779 12.8882C17.9575 12.8882 17.6072 12.8141 17.3036 12.6412C17 12.4683 16.7664 12.2706 16.5796 11.9989V14.8151C16.5796 14.8892 16.5563 14.9633 16.5095 15.0374C16.4628 15.0868 16.3928 15.1115 16.2994 15.1115H15.2718V15.1362ZM17.9108 11.5789C18.2378 11.5789 18.518 11.5048 18.7048 11.3566C18.8917 11.2084 19.0318 11.0108 19.1252 10.7637C19.2186 10.5167 19.2653 10.245 19.2887 9.94853C19.2887 9.70149 19.2887 9.45446 19.2887 9.20743C19.2653 8.91099 19.2186 8.63925 19.1252 8.39222C19.0318 8.14519 18.8917 7.94756 18.7048 7.79934C18.518 7.65112 18.2611 7.57702 17.9108 7.57702C17.5838 7.57702 17.3269 7.65113 17.1401 7.82405C16.9299 7.97227 16.7898 8.16989 16.6964 8.41692C16.603 8.66396 16.5563 8.91099 16.5329 9.15802C16.5329 9.30624 16.5095 9.45446 16.5095 9.62738C16.5095 9.80031 16.5095 9.94852 16.5329 10.1214C16.5329 10.3685 16.603 10.6155 16.6964 10.8378C16.7898 11.0602 16.9533 11.2578 17.1401 11.406C17.3503 11.5048 17.6072 11.5789 17.9108 11.5789Z" fill="#221A33"/>
<path d="M24.8936 12.7894C24.4265 12.7894 24.0295 12.6906 23.7026 12.5177C23.3756 12.3448 23.1421 12.0978 22.9786 11.7519C22.8151 11.4061 22.745 10.9861 22.745 10.4673V7.65118H21.8109C21.7408 7.65118 21.6707 7.62647 21.6007 7.55236C21.554 7.50295 21.5306 7.42885 21.5306 7.33003V6.61364C21.5306 6.53953 21.554 6.46542 21.6007 6.39131C21.6474 6.3419 21.7174 6.2925 21.8109 6.2925H22.745V4.24213C22.745 4.16802 22.7684 4.09391 22.8151 4.01981C22.8618 3.9704 22.9319 3.92099 23.0253 3.92099H23.9828C24.0529 3.92099 24.1229 3.9457 24.193 4.01981C24.2397 4.06921 24.2864 4.14332 24.2864 4.24213V6.2925H25.7577C25.8278 6.2925 25.8978 6.3172 25.9679 6.39131C26.0146 6.44072 26.0613 6.51483 26.0613 6.61364V7.33003C26.0613 7.42885 26.038 7.50295 25.9679 7.55236C25.8978 7.60177 25.8511 7.65118 25.7577 7.65118H24.2864V10.3438C24.2864 10.6897 24.3331 10.9367 24.4499 11.1343C24.5667 11.332 24.7535 11.4308 25.0337 11.4308H25.8511C25.9212 11.4308 25.9913 11.4555 26.0613 11.5296C26.108 11.579 26.1547 11.6531 26.1547 11.7519V12.5177C26.1547 12.5918 26.1314 12.6659 26.0613 12.74C26.0146 12.7894 25.9446 12.8388 25.8511 12.8388H24.8936V12.7894Z" fill="#221A33"/>
<path d="M42.3392 12.9129C41.9422 12.9129 41.5685 12.8388 41.2416 12.6659C40.9146 12.493 40.6577 12.2706 40.4709 11.9742C40.2841 11.6777 40.1906 11.3566 40.1906 11.0108C40.1906 10.4426 40.4242 9.97323 40.8679 9.62738C41.3117 9.28154 41.8955 9.05921 42.6195 8.93569L44.2309 8.68866V8.44163C44.2309 8.09578 44.1375 7.82405 43.974 7.62642C43.8105 7.4288 43.5303 7.32998 43.1333 7.32998C42.853 7.32998 42.6195 7.37939 42.456 7.5029C42.2692 7.62642 42.1524 7.77464 42.059 7.97227C41.9889 8.07108 41.8955 8.14519 41.7787 8.14519H40.8446C40.7511 8.14519 40.7044 8.12049 40.6577 8.07108C40.611 8.02167 40.5877 7.94756 40.5877 7.87345C40.5877 7.74994 40.6577 7.57701 40.7511 7.37939C40.8446 7.18176 41.008 7.00884 41.1949 6.83592C41.4051 6.663 41.662 6.51478 41.9656 6.39126C42.2925 6.26774 42.6662 6.19363 43.1333 6.19363C43.6237 6.19363 44.0441 6.26774 44.371 6.39126C44.7214 6.51478 44.9783 6.6877 45.1884 6.91003C45.3986 7.13236 45.5388 7.37939 45.6322 7.67583C45.7256 7.97226 45.7723 8.26871 45.7723 8.58985V12.493C45.7723 12.5671 45.7489 12.6412 45.6789 12.7153C45.6322 12.7647 45.5621 12.8141 45.4687 12.8141H44.5112C44.4178 12.8141 44.3477 12.7894 44.301 12.7153C44.2543 12.6659 44.2309 12.5918 44.2309 12.493V11.9989C44.1375 12.1471 43.9974 12.2953 43.8105 12.4435C43.6471 12.5918 43.4369 12.6906 43.18 12.7894C42.9698 12.8635 42.6895 12.9129 42.3392 12.9129ZM42.7596 11.7272C43.0399 11.7272 43.2734 11.6777 43.5069 11.5295C43.7405 11.406 43.904 11.2084 44.0441 10.9614C44.1842 10.6896 44.2309 10.3685 44.2309 9.97323V9.70149L43.0632 9.89911C42.5961 9.97322 42.2692 10.0967 42.0356 10.2697C41.8021 10.4426 41.6853 10.6402 41.6853 10.8872C41.6853 11.0602 41.732 11.2331 41.8488 11.3566C41.9656 11.4801 42.0823 11.5789 42.2458 11.653C42.3859 11.7025 42.5728 11.7272 42.7596 11.7272Z" fill="#221A33"/>
<path d="M47.5472 12.7894C47.4772 12.7894 47.4071 12.7647 47.3371 12.6906C47.2903 12.6412 47.2436 12.5671 47.2436 12.4682V6.63828C47.2436 6.53947 47.267 6.46536 47.3371 6.41595C47.3838 6.36655 47.4538 6.31714 47.5472 6.31714H48.5048C48.5748 6.31714 48.6449 6.34184 48.7149 6.41595C48.785 6.46536 48.8084 6.53947 48.8084 6.63828V7.15705C48.9952 6.88531 49.2287 6.68769 49.509 6.53947C49.7892 6.39125 50.1162 6.31714 50.4899 6.31714H50.9803C51.0737 6.31714 51.1438 6.34184 51.1905 6.41595C51.2372 6.46536 51.2606 6.53947 51.2606 6.63828V7.5276C51.2606 7.60171 51.2372 7.67582 51.1905 7.74993C51.1438 7.79933 51.0737 7.84874 50.9803 7.84874H50.0695C49.6958 7.84874 49.3922 7.94755 49.2054 8.16988C48.9952 8.39221 48.9018 8.68865 48.9018 9.0839V12.4929C48.9018 12.5671 48.8784 12.6412 48.8084 12.7153C48.7617 12.7647 48.6916 12.8141 48.5982 12.8141H47.5472V12.7894Z" fill="#221A33"/>
<path d="M53.8295 12.9129C53.4325 12.9129 53.0588 12.8388 52.7318 12.6659C52.4049 12.493 52.148 12.2706 51.9611 11.9742C51.7743 11.6777 51.6809 11.3566 51.6809 11.0108C51.6809 10.4426 51.9144 9.97323 52.3582 9.62738C52.8019 9.28154 53.3857 9.05921 54.1097 8.93569L55.7212 8.68866V8.44163C55.7212 8.09578 55.6278 7.82405 55.4643 7.62642C55.3008 7.4288 55.0205 7.32998 54.6235 7.32998C54.3433 7.32998 54.1097 7.37939 53.9462 7.5029C53.7594 7.62642 53.6426 7.77464 53.5492 7.97227C53.4792 8.07108 53.3857 8.14519 53.269 8.14519H52.3348C52.2414 8.14519 52.1947 8.12049 52.148 8.07108C52.1013 8.02167 52.0779 7.94756 52.0779 7.87345C52.0779 7.74994 52.148 7.57701 52.2414 7.37939C52.3348 7.18176 52.4983 7.00884 52.6851 6.83592C52.8953 6.663 53.1522 6.51478 53.4558 6.39126C53.7828 6.26774 54.1564 6.19363 54.6235 6.19363C55.114 6.19363 55.5343 6.26774 55.8613 6.39126C56.2116 6.51478 56.4685 6.6877 56.6787 6.91003C56.8889 7.13236 57.029 7.37939 57.1224 7.67583C57.2158 7.97226 57.2625 8.26871 57.2625 8.58985V12.493C57.2625 12.5671 57.2392 12.6412 57.1691 12.7153C57.1224 12.7647 57.0524 12.8141 56.9589 12.8141H56.0014C55.908 12.8141 55.8379 12.7894 55.7912 12.7153C55.7445 12.6659 55.7212 12.5918 55.7212 12.493V11.9989C55.6277 12.1471 55.4876 12.2953 55.3008 12.4435C55.1373 12.5918 54.9271 12.6906 54.6702 12.7894C54.46 12.8635 54.1798 12.9129 53.8295 12.9129ZM54.2265 11.7272C54.5067 11.7272 54.7403 11.6777 54.9738 11.5295C55.2074 11.406 55.3709 11.2084 55.511 10.9614C55.6511 10.6896 55.6978 10.3685 55.6978 9.97323V9.70149L54.5301 9.89911C54.063 9.97322 53.7361 10.0967 53.5025 10.2697C53.269 10.4426 53.1522 10.6402 53.1522 10.8872C53.1522 11.0602 53.1989 11.2331 53.3157 11.3566C53.4325 11.4801 53.5492 11.5789 53.7127 11.653C53.8762 11.7025 54.063 11.7272 54.2265 11.7272Z" fill="#221A33"/>
<path fill-rule="evenodd" clip-rule="evenodd" d="M35.4964 7.79936C34.8191 7.79936 34.4455 8.14521 34.282 8.71338H31.8064L31.3627 7.92288C30.8489 7.00886 30.0315 6.41599 29.0039 6.41599C27.5093 6.41599 26.2949 7.70055 26.2949 9.28156C26.2949 10.8626 27.5093 12.1471 29.0039 12.1471C29.7746 12.1471 30.522 11.826 30.989 11.2331C31.1525 11.0108 31.5729 10.2944 31.8765 9.82503L34.1652 9.77562C34.3287 10.3685 34.8425 10.7143 35.4964 10.7143C36.2671 10.7143 36.8977 10.0474 36.8977 9.23215C36.8977 8.46635 36.2671 7.79936 35.4964 7.79936ZM30.0782 9.6274C30.0549 10.0721 29.9615 10.4179 29.7746 10.6402C29.5878 10.8626 29.3076 10.9861 28.9806 10.9861C28.6303 10.9861 28.3734 10.8626 28.1865 10.6402C27.9997 10.4179 27.8829 10.0721 27.8829 9.6274C27.8829 9.52859 27.8829 9.38037 27.8829 9.23215C27.8829 9.05923 27.8829 8.93571 27.8829 8.8369C27.9063 8.39224 27.9997 8.0464 28.1865 7.82407C28.3734 7.60174 28.6536 7.47822 28.9806 7.47822C29.3309 7.47822 29.5878 7.60174 29.7746 7.82407C29.9615 8.0464 30.0782 8.39224 30.0782 8.8369C30.0782 8.93571 30.0782 9.08393 30.0782 9.23215C30.1016 9.40507 30.1016 9.52859 30.0782 9.6274Z" fill="#221A33"/>
<path d="M38.8361 10.6402C38.7193 10.1956 38.5792 9.25685 38.8127 7.84877C39.0463 7.55233 39.3265 7.57703 39.5834 7.08297C40.3074 5.67488 38.5558 4.2915 37.4582 5.42785C37.2714 5.60077 37.1079 5.7984 36.921 5.97132C36.5707 6.09484 35.6599 6.29246 34.2587 6.04543C34.1185 5.94662 33.9784 5.8478 33.8616 5.69958C33.2544 5.0573 32.2502 5.15612 31.8532 5.99603C31.5963 6.51479 31.6897 7.18178 32.1101 7.62644C32.8107 8.36753 33.488 8.07109 34.0718 7.45351C34.4922 7.00886 35.0527 6.78653 35.6132 6.76182C36.0803 6.73712 36.5474 6.86064 36.9677 7.10767C37.3414 7.3547 37.645 7.67584 37.8552 8.0958C38.3456 9.05922 38.2289 10.3191 37.4348 11.1343C36.921 11.6778 36.2671 11.9248 35.5665 11.8754H35.5198C35.2862 11.8507 35.0761 11.8013 34.8425 11.7272C34.3521 11.5048 34.0018 10.6896 33.2311 10.6402C33.2077 10.6402 33.1844 10.6402 33.1844 10.6402H33.161H33.1377H33.1143H33.0909H33.0676H33.0442H33.0209C32.7173 10.6649 32.3903 10.8132 32.1568 11.0602C31.8999 11.3566 31.7598 11.7272 31.7831 12.0977C31.7831 12.1224 31.7831 12.1718 31.7831 12.1965C31.8065 12.4436 31.8765 12.6412 31.9933 12.8141C32.0167 12.8388 32.04 12.8882 32.0634 12.9129C32.2035 13.1106 32.367 13.2588 32.5071 13.4317C32.5772 13.5058 32.6239 13.5799 32.6939 13.654C32.764 14.0987 32.8107 14.7657 32.6939 15.6303C32.6472 15.7291 32.5772 15.8279 32.5071 15.9267C32.2502 16.2479 31.8298 16.5937 31.8065 16.989C31.8065 17.0137 31.8065 17.0631 31.8065 17.0878C31.8065 17.4583 31.9232 17.8289 32.1801 18.1253C32.6939 18.6688 33.5347 18.6935 34.0718 18.15C34.2353 17.9771 34.3521 17.7548 34.4221 17.5324C34.6323 16.7666 34.282 16.5443 33.8616 15.9761C33.7682 15.8773 33.6982 15.7538 33.6281 15.6303C33.6047 15.5809 33.5814 15.5315 33.558 15.4821C33.5113 15.0621 33.4646 14.4939 33.5347 13.7528C33.5814 13.654 33.6281 13.5552 33.6982 13.4564C33.7449 13.3823 33.7916 13.3082 33.8616 13.2341C33.9317 13.16 33.9784 13.0858 34.0485 13.0117C34.1185 12.9376 34.1886 12.8882 34.282 12.8141C34.3521 12.74 34.4455 12.6906 34.5156 12.6412C34.9593 12.5424 35.7767 12.4189 36.9444 12.6165C37.0378 12.6659 37.1312 12.74 37.2246 12.8141L37.248 12.8388C39.093 14.4692 40.3775 12.32 39.163 11.0355C38.9996 10.8873 38.9061 10.7637 38.8361 10.6402Z" fill="#221A33"/>
</symbol>


<symbol width="43" height="25" viewBox="0 0 43 25" fill="none" xmlns="http://www.w3.org/2000/svg" id="kiwi-mobility">
<path d="M20.417 0.588597C19.4909 0.608641 18.7816 0.644507 18.289 0.696201C17.5137 0.777571 16.454 0.917107 16.3461 1.02756C16.2745 1.10076 16.2741 1.71972 16.3448 2.88444C16.3456 2.89757 16.3404 2.91036 16.3306 2.91917L13.7824 5.21373C13.785 5.2367 13.7842 5.25213 13.7932 5.26214C13.7999 5.26965 13.8106 5.27222 13.8201 5.26858C14.9154 4.84641 15.7574 4.53726 16.3461 4.34115C16.9546 4.13841 17.5906 3.95712 18.2541 3.79728C18.2743 3.79238 18.2882 3.77375 18.2871 3.75296L18.1826 1.82874C18.1817 1.8117 18.1909 1.79573 18.2061 1.78796L20.4371 0.646497C20.4359 0.620489 20.4396 0.608763 20.4347 0.599194C20.4314 0.592554 20.4245 0.58844 20.417 0.588597Z" fill="#221A33"/>
<path d="M12.8075 4.53241L14.4868 2.55687C14.5006 2.54057 14.5004 2.51657 14.4864 2.50047L13.7733 1.68558C13.7623 1.67299 13.7596 1.65517 13.7663 1.63984L14.4731 0.0242261C14.4414 0.00619218 14.4398 0.00211205 14.4363 0.00058024C14.434 -0.000438741 14.4313 -9.85393e-05 14.4293 0.0014663C13.8268 0.471999 13.4222 0.81061 13.2156 1.0173C13.0048 1.2281 12.7253 1.54183 12.3773 1.95848C12.363 1.97563 12.3641 2.00088 12.3799 2.01668L13.1974 2.8342C13.2086 2.84537 13.2128 2.86176 13.2083 2.87691L12.7332 4.49226C12.7265 4.51514 12.7396 4.53914 12.7625 4.54587C12.7788 4.55068 12.7965 4.54541 12.8075 4.53241Z" fill="#221A33"/>
<path d="M8.03437 19.3677C12.3267 19.3677 15.8063 15.8881 15.8063 11.5958C15.8063 7.3035 12.3267 3.82391 8.03437 3.82391C3.74208 3.82391 0.262497 7.3035 0.262497 11.5958C0.262497 15.8881 3.74208 19.3677 8.03437 19.3677Z" fill="#949199"/>
<path d="M8.03437 19.3677C12.3267 19.3677 15.8063 15.8881 15.8063 11.5958C15.8063 7.3035 12.3267 3.82391 8.03437 3.82391C3.74208 3.82391 0.262497 7.3035 0.262497 11.5958C0.262497 15.8881 3.74208 19.3677 8.03437 19.3677ZM8.03437 18.0724C4.45747 18.0724 1.55781 15.1727 1.55781 11.5958C1.55781 8.01888 4.45747 5.11923 8.03437 5.11923C11.6113 5.11923 14.5109 8.01888 14.5109 11.5958C14.5109 15.1727 11.6113 18.0724 8.03437 18.0724Z" fill="#221A33"/>
<path d="M8.03441 15.05C9.94209 15.05 11.4886 13.5035 11.4886 11.5959C11.4886 9.68818 9.94209 8.14169 8.03441 8.14169C6.12672 8.14169 4.58024 9.68818 4.58024 11.5959C4.58024 13.5035 6.12672 15.05 8.03441 15.05Z" fill="#BFBFBF"/>
<path d="M8.0344 8.78931C7.87249 8.78931 7.38674 7.85169 7.38674 7.494C7.38674 7.13631 7.67671 6.84634 8.0344 6.84634C8.39209 6.84634 8.68206 7.13631 8.68206 7.494C8.68206 7.85169 8.19632 8.78931 8.0344 8.78931ZM10.0189 9.61132C9.90441 9.49683 10.2239 8.49036 10.4769 8.23743C10.7298 7.98451 11.1399 7.98451 11.3928 8.23743C11.6457 8.49036 11.6457 8.90043 11.3928 9.15336C11.1399 9.40628 10.1334 9.72581 10.0189 9.61132ZM10.8409 11.5958C10.8409 11.4339 11.7785 10.9482 12.1362 10.9482C12.4939 10.9482 12.7839 11.2381 12.7839 11.5958C12.7839 11.9535 12.4939 12.2435 12.1362 12.2435C11.7785 12.2435 10.8409 11.7577 10.8409 11.5958ZM10.0189 13.5803C10.1334 13.4658 11.1399 13.7854 11.3928 14.0383C11.6457 14.2912 11.6457 14.7013 11.3928 14.9542C11.1399 15.2071 10.7298 15.2071 10.4769 14.9542C10.2239 14.7013 9.90441 13.6948 10.0189 13.5803ZM8.0344 14.4023C8.19632 14.4023 8.68206 15.34 8.68206 15.6976C8.68206 16.0553 8.39209 16.3453 8.0344 16.3453C7.67671 16.3453 7.38674 16.0553 7.38674 15.6976C7.38674 15.34 7.87249 14.4023 8.0344 14.4023ZM6.0499 13.5803C6.16439 13.6948 5.84486 14.7013 5.59194 14.9542C5.33901 15.2071 4.92894 15.2071 4.67601 14.9542C4.42309 14.7013 4.42309 14.2912 4.67601 14.0383C4.92894 13.7854 5.93541 13.4658 6.0499 13.5803ZM5.22789 11.5958C5.22789 11.7577 4.29027 12.2435 3.93258 12.2435C3.57489 12.2435 3.28492 11.9535 3.28492 11.5958C3.28492 11.2381 3.57489 10.9482 3.93258 10.9482C4.29027 10.9482 5.22789 11.4339 5.22789 11.5958ZM6.0499 9.61132C5.93541 9.72581 4.92894 9.40628 4.67601 9.15336C4.42309 8.90043 4.42309 8.49036 4.67601 8.23743C4.92894 7.98451 5.33901 7.98451 5.59194 8.23743C5.84486 8.49036 6.16439 9.49683 6.0499 9.61132Z" fill="#221A33"/>
<path d="M8.03445 13.1068C8.86906 13.1068 9.54565 12.4302 9.54565 11.5956C9.54565 10.761 8.86906 10.0844 8.03445 10.0844C7.19983 10.0844 6.52325 10.761 6.52325 11.5956C6.52325 12.4302 7.19983 13.1068 8.03445 13.1068Z" fill="white"/>
<path d="M24.7725 12.6774C24.9106 12.8219 24.9797 12.9845 24.9797 13.1652C24.9797 13.3459 24.9088 13.4976 24.7671 13.6205C24.6253 13.7434 24.4745 13.8048 24.3146 13.8048C24.1256 13.8048 23.9657 13.7325 23.8349 13.588L21.8723 11.5283L21.338 12.0161V13.1544C21.338 13.3423 21.2762 13.4994 21.1526 13.6259C21.0291 13.7524 20.8728 13.8156 20.6838 13.8156C20.4948 13.8156 20.3385 13.7524 20.215 13.6259C20.0914 13.4994 20.0296 13.3423 20.0296 13.1544V6.455C20.0296 6.26709 20.0914 6.10991 20.215 5.98344C20.3385 5.85697 20.4948 5.79373 20.6838 5.79373C20.8728 5.79373 21.0291 5.85697 21.1526 5.98344C21.2762 6.10991 21.338 6.26709 21.338 6.455V10.4659L23.6713 8.22198C23.8094 8.08467 23.9693 8.01601 24.151 8.01601C24.311 8.01601 24.4545 8.08286 24.5817 8.21656C24.7089 8.35026 24.7725 8.48576 24.7725 8.62308C24.7725 8.79652 24.6853 8.95913 24.5109 9.11089L22.8645 10.6177L24.7725 12.6774ZM28.447 13.1544C28.447 13.3423 28.3852 13.4994 28.2616 13.6259C28.138 13.7524 27.9817 13.8156 27.7928 13.8156C27.6038 13.8156 27.4475 13.7524 27.3239 13.6259C27.2003 13.4994 27.1386 13.3423 27.1386 13.1544V8.67728C27.1386 8.48938 27.2003 8.33219 27.3239 8.20572C27.4475 8.07925 27.6038 8.01601 27.7928 8.01601C27.9817 8.01601 28.138 8.07925 28.2616 8.20572C28.3852 8.33219 28.447 8.48938 28.447 8.67728V13.1544ZM37.5948 8.01601C37.7693 8.01601 37.9165 8.07925 38.0364 8.20572C38.1563 8.33219 38.2163 8.49299 38.2163 8.68812C38.2163 8.75316 38.2018 8.83627 38.1727 8.93745L36.5045 13.4037C36.4609 13.5338 36.3827 13.6368 36.2701 13.7126C36.1574 13.7885 36.0357 13.8265 35.9048 13.8265L35.8176 13.8156C35.5704 13.8012 35.3851 13.6639 35.2615 13.4037L34.3347 10.737L33.4516 13.4037C33.328 13.6639 33.1426 13.8012 32.8955 13.8156L32.8083 13.8265C32.6774 13.8265 32.5557 13.7885 32.443 13.7126C32.3303 13.6368 32.2522 13.5338 32.2086 13.4037L30.5404 8.93745C30.5113 8.85795 30.4968 8.77484 30.4968 8.68812C30.4968 8.50744 30.5567 8.35026 30.6767 8.21656C30.7966 8.08286 30.9547 8.01601 31.151 8.01601C31.2963 8.01601 31.4217 8.05034 31.5271 8.119C31.6325 8.18765 31.707 8.29064 31.7507 8.42795L32.9282 11.6042L33.7896 9.28434C33.9059 9.01694 34.1058 8.88325 34.3893 8.88325C34.5419 8.88325 34.66 8.91577 34.7436 8.98081C34.8272 9.04585 34.8981 9.14703 34.9562 9.28434L35.7958 11.55L36.9624 8.42795C37.006 8.29064 37.0824 8.18765 37.1914 8.119C37.3004 8.05034 37.4349 8.01601 37.5948 8.01601ZM41.5745 13.1544C41.5745 13.3423 41.5127 13.4994 41.3892 13.6259C41.2656 13.7524 41.1093 13.8156 40.9203 13.8156C40.7313 13.8156 40.5751 13.7524 40.4515 13.6259C40.3279 13.4994 40.2661 13.3423 40.2661 13.1544V8.67728C40.2661 8.48938 40.3279 8.33219 40.4515 8.20572C40.5751 8.07925 40.7313 8.01601 40.9203 8.01601C41.1093 8.01601 41.2656 8.07925 41.3892 8.20572C41.5127 8.33219 41.5745 8.48938 41.5745 8.67728V13.1544Z" fill="#221A33"/>
<path d="M27.7899 7.52833C27.9534 7.52833 28.4441 6.5867 28.4441 6.22748C28.4441 5.86826 28.1512 5.57706 27.7899 5.57706C27.4286 5.57706 27.1357 5.86826 27.1357 6.22748C27.1357 6.5867 27.6263 7.52833 27.7899 7.52833Z" fill="#BFBFBF"/>
<path d="M40.9228 7.52833C41.0863 7.52833 41.577 6.5867 41.577 6.22748C41.577 5.86826 41.2841 5.57706 40.9228 5.57706C40.5615 5.57706 40.2686 5.86826 40.2686 6.22748C40.2686 6.5867 40.7592 7.52833 40.9228 7.52833Z" fill="#BFBFBF"/>
<path d="M20.4015 16.0841C20.5497 16.0841 20.6446 16.1493 20.6861 16.2798C20.8462 16.1493 21.0784 16.0841 21.3828 16.0841C21.786 16.0841 22.1111 16.2343 22.3582 16.5348C22.4432 16.3766 22.6814 16.2383 23.0727 16.1197L23.3336 16.0841C23.8257 16.0841 24.2131 16.3173 24.4958 16.7838C24.5906 16.9795 24.6381 17.1672 24.6381 17.3471V18.9718C24.6381 19.1161 24.5422 19.207 24.3505 19.2445H24.3238C24.1321 19.2109 24.0362 19.1121 24.0362 18.948V17.3708C24.0362 17.0546 23.8702 16.8362 23.5382 16.7156L23.4018 16.6978H23.298C23.0351 16.6978 22.8335 16.852 22.6932 17.1603C22.6754 17.2255 22.6665 17.2809 22.6665 17.3263V18.948C22.631 19.1457 22.5331 19.2445 22.373 19.2445H22.3523C22.1605 19.2109 22.0647 19.116 22.0647 18.9599V17.6198C22.0647 17.274 22.0222 17.0615 21.9372 16.9824C21.7949 16.7927 21.6131 16.6978 21.3917 16.6978H21.3591C21.0547 16.6978 20.8403 16.8619 20.7157 17.19C20.696 17.269 20.6861 17.3767 20.6861 17.5131V18.9599C20.6861 19.116 20.5902 19.2109 20.3985 19.2445H20.3807C20.2206 19.2445 20.1218 19.1457 20.0842 18.948V16.4191C20.106 16.1958 20.2117 16.0841 20.4015 16.0841ZM26.8091 16.0485C27.2221 16.0485 27.5957 16.2047 27.9297 16.517C28.2479 16.851 28.407 17.2275 28.407 17.6465C28.407 18.2454 28.1244 18.7158 27.5591 19.0577C27.3121 19.1823 27.0729 19.2445 26.8417 19.2445H26.7527C26.3219 19.2445 25.9216 19.0429 25.552 18.6397C25.3247 18.3195 25.2111 17.9885 25.2111 17.6465C25.2111 17.1267 25.4403 16.6919 25.8989 16.342C26.1914 16.1464 26.4948 16.0485 26.8091 16.0485ZM25.8307 17.6139V17.6673C25.8307 18.0369 26.0096 18.3235 26.3673 18.5271C26.4938 18.5923 26.6302 18.6249 26.7764 18.6249H26.8417C27.2231 18.6249 27.5157 18.4263 27.7192 18.029C27.7647 17.9064 27.7874 17.7859 27.7874 17.6673V17.6139C27.7874 17.3076 27.6461 17.0486 27.3635 16.8372C27.1994 16.7245 27.0107 16.6682 26.7972 16.6682C26.3802 16.6682 26.0738 16.8876 25.8781 17.3263C25.8465 17.4291 25.8307 17.525 25.8307 17.6139ZM29.1194 14.8211H29.1698C29.3575 14.8626 29.4514 14.9565 29.4514 15.1028V16.348C29.6945 16.1147 30.0315 15.9981 30.4624 15.9981C30.8794 15.9981 31.2579 16.1563 31.5979 16.4725C31.922 16.8125 32.0841 17.1949 32.0841 17.6198C32.0841 18.2286 31.7965 18.7069 31.2214 19.0548C30.9704 19.1813 30.7282 19.2445 30.495 19.2445H30.4061C29.9673 19.2445 29.5601 19.04 29.1846 18.6308C28.9534 18.3225 28.8377 17.9598 28.8377 17.5428V15.1028C28.8377 14.9565 28.9316 14.8626 29.1194 14.8211ZM29.4514 17.5872V17.6436C29.4514 18.0626 29.6718 18.3749 30.1126 18.5804C30.2272 18.614 30.332 18.6308 30.4268 18.6308H30.495C30.9022 18.6308 31.2105 18.4114 31.42 17.9726C31.4536 17.8402 31.4704 17.7384 31.4704 17.6673V17.5991C31.4704 17.1821 31.2471 16.8698 30.8004 16.6622C30.664 16.6286 30.5583 16.6118 30.4832 16.6118H30.4387C30.0315 16.6118 29.7232 16.8283 29.5137 17.2611C29.4722 17.3817 29.4514 17.4904 29.4514 17.5872ZM33.0959 15.254C33.2916 15.3034 33.3894 15.3963 33.3894 15.5327V15.5979C33.3894 15.754 33.2836 15.8469 33.0722 15.8766C32.92 15.8766 32.8202 15.7728 32.7727 15.5653C32.8142 15.3578 32.9219 15.254 33.0959 15.254ZM33.0959 16.013C33.2916 16.0624 33.3894 16.1553 33.3894 16.2916V18.954C33.3894 19.1141 33.2906 19.2109 33.0929 19.2445H33.0751C32.9131 19.2445 32.8132 19.1437 32.7757 18.9421V16.3509C32.7994 16.1256 32.9061 16.013 33.0959 16.013ZM34.4219 14.836H34.4753C34.663 14.8755 34.7569 14.9644 34.7569 15.1028V18.6308H34.9022C35.0465 18.6308 35.1394 18.7287 35.1809 18.9243V18.948C35.1473 19.1457 35.0465 19.2445 34.8785 19.2445H34.4456C34.2816 19.2445 34.1808 19.1437 34.1432 18.9421V15.1621C34.1669 14.9447 34.2598 14.836 34.4219 14.836ZM36.1808 15.254C36.3765 15.3034 36.4743 15.3963 36.4743 15.5327V15.5979C36.4743 15.754 36.3686 15.8469 36.1571 15.8766C36.0049 15.8766 35.9051 15.7728 35.8576 15.5653C35.8991 15.3578 36.0069 15.254 36.1808 15.254ZM36.1808 16.013C36.3765 16.0624 36.4743 16.1553 36.4743 16.2916V18.954C36.4743 19.1141 36.3755 19.2109 36.1778 19.2445H36.16C35.998 19.2445 35.8981 19.1437 35.8606 18.9421V16.3509C35.8843 16.1256 35.991 16.013 36.1808 16.013ZM37.8863 14.9457H37.9367C38.1205 14.9852 38.2124 15.0731 38.2124 15.2095V16.0989H38.5652L38.6631 16.0871C38.8152 16.0871 38.9151 16.1859 38.9625 16.3836C38.9625 16.5318 38.8755 16.6375 38.7016 16.7008L38.5237 16.6889H38.2124V18.198C38.2124 18.4351 38.2796 18.5765 38.414 18.6219L38.6482 18.6427H38.7668C38.9111 18.6427 39.002 18.7385 39.0396 18.9303V18.9569C39.006 19.1487 38.9072 19.2445 38.7431 19.2445H38.5148C38.1314 19.2445 37.8468 19.037 37.661 18.6219C37.6274 18.5172 37.6106 18.3976 37.6106 18.2632V16.6889H37.4861L37.2963 16.7008C37.1224 16.6395 37.0354 16.5348 37.0354 16.3865C37.069 16.1948 37.1342 16.0989 37.2311 16.0989V16.0782L37.4357 16.0989H37.6106V15.2688C37.6343 15.0534 37.7262 14.9457 37.8863 14.9457ZM40.6354 18.0201L40.9621 17.2285C41.2463 16.5451 41.4033 16.1864 41.4329 16.1523C41.5021 16.095 41.5742 16.0663 41.6493 16.0663C41.8391 16.1019 41.934 16.1968 41.934 16.3509V16.3687L41.9316 16.3789C41.8999 16.494 41.5577 17.3296 40.9052 18.8858L40.7088 19.3692C40.5065 19.8616 40.3861 20.1323 40.3478 20.1814C40.2984 20.2189 40.2342 20.2486 40.1551 20.2703C39.9555 20.2268 39.8557 20.1369 39.8557 20.0005V19.9501L39.8565 19.9436C39.8687 19.8796 40.0216 19.4934 40.3152 18.785L39.3368 16.3984V16.3628C39.3744 16.1731 39.4732 16.0782 39.6333 16.0782C39.7934 16.0782 39.9209 16.2343 40.0158 16.5466L40.4914 17.6733C40.5541 17.8229 40.6021 17.9385 40.6354 18.0201Z" fill="#221A33"/>
</symbol>


<svg width="28" height="19" viewBox="0 0 28 19" fill="none" xmlns="http://www.w3.org/2000/svg" id="token-suite">
<g clip-path="url(#clip0)">
<path d="M2.07841 2.51391H0.549993C0.37018 2.51391 0.262292 2.49593 0.226329 2.44199C0.172385 2.40602 0.154404 2.29814 0.154404 2.11832V1.63283C0.154404 1.45301 0.172385 1.34512 0.226329 1.30916C0.262292 1.2732 0.37018 1.23724 0.549993 1.23724H5.08129C5.24313 1.23724 5.35101 1.25522 5.40496 1.30916C5.44092 1.34512 5.47688 1.45301 5.47688 1.63283V2.11832C5.47688 2.29814 5.4589 2.40602 5.40496 2.44199C5.369 2.47795 5.26111 2.51391 5.08129 2.51391H3.5349V8.33987C3.5349 8.51968 3.51692 8.62757 3.46297 8.66354C3.42701 8.6995 3.31912 8.73546 3.13931 8.73546H2.45602C2.2762 8.73546 2.16832 8.71748 2.13235 8.66354C2.09639 8.62757 2.06043 8.51968 2.06043 8.33987V2.51391H2.07841ZM7.293 3.71866C8.17409 3.71866 8.87536 3.98838 9.39682 4.5458C9.84635 5.01332 10.0621 5.6067 10.0621 6.30798C10.0621 7.11714 9.77443 7.76447 9.19902 8.24996C8.69555 8.68152 8.04822 8.89729 7.25704 8.89729C6.75356 8.89729 6.26806 8.7894 5.81853 8.55565C5.369 8.33987 5.02735 7.99822 4.79359 7.56667C4.5958 7.18906 4.48791 6.75751 4.48791 6.25403C4.48791 5.46285 4.77561 4.81552 5.369 4.33003C5.6567 4.09627 5.99834 3.93444 6.41191 3.82655C6.73558 3.75463 7.02328 3.71866 7.293 3.71866ZM7.27502 4.94139C6.89741 4.94139 6.57375 5.06726 6.30403 5.33698C6.03431 5.6067 5.90844 5.93037 5.90844 6.32596C5.90844 6.68559 6.03431 7.00925 6.30403 7.26099C6.57375 7.53071 6.89741 7.65658 7.27502 7.65658C7.65263 7.65658 7.97629 7.53071 8.24601 7.26099C8.51573 6.99127 8.6416 6.68559 8.6416 6.30798C8.6416 5.93037 8.51573 5.6067 8.24601 5.33698C7.97629 5.06726 7.65263 4.94139 7.27502 4.94139ZM18.1897 6.52375C18.2077 6.93732 18.3156 7.26099 18.5134 7.47677C18.7291 7.71052 19.0168 7.83639 19.3945 7.83639C19.862 7.83639 20.2036 7.65658 20.4554 7.29695C20.5093 7.22503 20.5632 7.20704 20.6352 7.20704C20.6531 7.20704 20.7071 7.22503 20.833 7.24301L21.3185 7.33291C21.4623 7.3509 21.5522 7.38686 21.5882 7.42282C21.6421 7.45878 21.6601 7.51273 21.6601 7.58465C21.6601 7.65658 21.6241 7.74649 21.5522 7.87235C21.4803 7.99822 21.3904 8.10611 21.2825 8.214C20.797 8.68152 20.1676 8.93326 19.3945 8.93326C18.909 8.93326 18.4774 8.82537 18.0638 8.62757C17.5783 8.37583 17.2367 8.01621 17.0209 7.51273C16.8771 7.17108 16.8051 6.77549 16.8051 6.34394C16.8051 5.84046 16.913 5.37295 17.1288 4.95938C17.3446 4.5458 17.6503 4.24012 18.0638 4.04233C18.4414 3.86251 18.873 3.75463 19.3405 3.75463C20.0598 3.75463 20.6352 3.95242 21.0847 4.36599C21.3185 4.58177 21.4983 4.85149 21.6241 5.19313C21.768 5.53478 21.8219 5.87642 21.8219 6.23605C21.8219 6.3799 21.804 6.46981 21.75 6.50577C21.6961 6.54174 21.6062 6.55972 21.4263 6.55972H18.1897V6.52375ZM20.5453 5.66065C20.4913 5.40891 20.4014 5.2291 20.2935 5.08525C20.0777 4.81553 19.7721 4.68966 19.3945 4.68966C19.1067 4.68966 18.855 4.77956 18.6572 4.94139C18.4594 5.12121 18.3335 5.35497 18.2616 5.66065H20.5453ZM24.0516 4.47388C24.2314 4.24012 24.4112 4.06031 24.5911 3.9704C24.8788 3.80857 25.2024 3.71866 25.58 3.71866C26.1734 3.71866 26.6589 3.91646 27.0006 4.31205C27.1444 4.47388 27.2343 4.65369 27.3062 4.85149C27.3602 5.04928 27.3962 5.319 27.3962 5.64267V8.33987C27.3962 8.51968 27.3782 8.62757 27.3242 8.66354C27.2703 8.6995 27.1804 8.73546 27.0006 8.73546H26.4072C26.2453 8.73546 26.1375 8.71748 26.0835 8.66354C26.0476 8.60959 26.0116 8.5017 26.0116 8.33987V6.03826C26.0116 5.66065 25.9756 5.40891 25.8857 5.24708C25.7419 4.99534 25.4721 4.86947 25.0945 4.86947C24.7349 4.86947 24.4832 4.97736 24.3213 5.19313C24.1595 5.40891 24.0696 5.75056 24.0696 6.21807V8.33987C24.0696 8.51968 24.0516 8.62757 23.9977 8.66354C23.9617 8.6995 23.8538 8.73546 23.674 8.73546H23.0806C22.9188 8.73546 22.8109 8.71748 22.757 8.66354C22.721 8.62757 22.685 8.51968 22.685 8.33987V4.2581C22.685 4.07829 22.703 3.9704 22.757 3.93444C22.7929 3.89848 22.9008 3.86251 23.0806 3.86251H23.674C23.8538 3.86251 23.9617 3.88049 23.9977 3.93444C24.0336 3.9704 24.0696 4.07829 24.0696 4.2581V4.47388H24.0516ZM11.177 0.5H11.9322C12.13 0.5 12.3098 0.661832 12.3098 0.877608V8.35785C12.3098 8.55565 12.148 8.73546 11.9322 8.73546H11.177C10.9792 8.73546 10.7994 8.57363 10.7994 8.35785V0.877608C10.7994 0.661832 10.9612 0.5 11.177 0.5ZM5.4589 10.6055L5.15322 10.9651C5.04533 11.109 4.93744 11.1809 4.84754 11.1809C4.81157 11.1809 4.75763 11.1629 4.73965 11.145C4.70369 11.127 4.61378 11.0551 4.46993 10.9472C4.38002 10.8752 4.23617 10.8213 4.05636 10.7674C3.87654 10.7134 3.69673 10.6954 3.55288 10.6954C3.19325 10.6954 2.90555 10.7853 2.68977 10.9651C2.49198 11.127 2.40207 11.3068 2.40207 11.5226C2.40207 11.7204 2.49198 11.9002 2.67179 12.026C2.85161 12.1519 3.17527 12.2958 3.66077 12.4576C4.1103 12.6015 4.45195 12.7273 4.6857 12.8352C4.91946 12.9431 5.11726 13.069 5.31505 13.2128C5.80055 13.5904 6.05229 14.1119 6.05229 14.7772C6.05229 15.5864 5.7466 16.2157 5.11726 16.6652C4.5958 17.0428 3.94847 17.2406 3.17527 17.2406C2.5639 17.2406 1.9885 17.0968 1.48502 16.8271C1.2153 16.6832 0.963565 16.5034 0.747788 16.3056C0.532012 16.1078 0.424124 15.946 0.424124 15.8561C0.424124 15.7842 0.496049 15.6942 0.621919 15.5864L1.03549 15.2267C1.16136 15.1009 1.26925 15.0469 1.32319 15.0469C1.39512 15.0469 1.48502 15.0829 1.53897 15.1548C1.71878 15.3706 1.84465 15.4964 1.89859 15.5324C1.95254 15.5684 2.04245 15.6223 2.15033 15.6942C2.45602 15.8381 2.7617 15.91 3.10335 15.91C3.51692 15.91 3.84058 15.7842 4.07434 15.5504C4.27213 15.3526 4.36204 15.1188 4.36204 14.8671C4.36204 14.5614 4.21819 14.3097 3.91251 14.1119C3.76866 14.022 3.39105 13.8601 2.77968 13.6623C2.15033 13.4646 1.68282 13.2488 1.39512 13.015C0.963565 12.6914 0.747788 12.2238 0.747788 11.6484C0.747788 10.8573 1.10742 10.2639 1.82667 9.83232C2.25822 9.58058 2.7617 9.45471 3.31912 9.45471C3.71471 9.45471 4.1103 9.52664 4.52387 9.65251C4.93744 9.77838 5.27909 9.94021 5.53083 10.138C5.60275 10.1919 5.63872 10.2459 5.63872 10.3178C5.62073 10.3897 5.56679 10.4797 5.4589 10.6055ZM8.21005 12.6194V14.975C8.21005 15.2807 8.26399 15.5324 8.37188 15.6942C8.55169 15.946 8.82141 16.0898 9.19902 16.0898C9.52269 16.0898 9.77443 15.9999 9.93626 15.8021C10.0981 15.6223 10.188 15.3346 10.188 14.975V12.6194C10.188 12.4396 10.206 12.3317 10.2599 12.2958C10.2959 12.2598 10.4038 12.2238 10.5836 12.2238H11.177C11.3388 12.2238 11.4467 12.2418 11.5006 12.2958C11.5366 12.3317 11.5726 12.4396 11.5726 12.6194V15.2087C11.5726 15.8201 11.3927 16.3056 11.0511 16.6293C10.6195 17.0428 10.0082 17.2406 9.23499 17.2406C8.44381 17.2406 7.83244 17.0428 7.40089 16.6293C7.05924 16.2876 6.87943 15.8201 6.87943 15.2087V12.6194C6.87943 12.4396 6.89741 12.3317 6.95135 12.2958C6.98732 12.2598 7.09521 12.2238 7.27502 12.2238H7.8684C8.04822 12.2238 8.15611 12.2418 8.19207 12.2958C8.19207 12.3317 8.21005 12.4396 8.21005 12.6194ZM17.3086 13.3926V16.6832C17.3086 16.863 17.2906 16.9709 17.2367 17.0069C17.2007 17.0428 17.0928 17.0788 16.913 17.0788H16.3376C16.1758 17.0788 16.0679 17.0608 16.014 17.0069C15.978 16.9529 15.942 16.8451 15.942 16.6832V13.3926H15.5464C15.3846 13.3926 15.2767 13.3747 15.2228 13.3207C15.1868 13.2668 15.1509 13.1589 15.1509 12.997V12.6015C15.1509 12.4216 15.1688 12.3137 15.2228 12.2778C15.2587 12.2418 15.3666 12.2059 15.5464 12.2059H15.942V10.9472C15.942 10.7674 15.96 10.6595 16.014 10.6235C16.0499 10.5875 16.1578 10.5696 16.3376 10.5696H16.931C17.0928 10.5696 17.2007 10.5875 17.2547 10.6415C17.2906 10.6954 17.3266 10.8033 17.3266 10.9651V12.2238H18.2796C18.4594 12.2238 18.5673 12.2418 18.6033 12.2958C18.6392 12.3317 18.6752 12.4396 18.6752 12.6194V13.015C18.6752 13.1769 18.6572 13.2847 18.6033 13.3387C18.5673 13.3746 18.4594 13.4106 18.2796 13.4106H17.3086V13.3926ZM20.4733 14.8671C20.4913 15.2807 20.5992 15.6043 20.797 15.8201C21.0128 16.0539 21.3005 16.1797 21.6781 16.1797C22.1456 16.1797 22.4872 15.9999 22.739 15.6403C22.7929 15.5684 22.8469 15.5504 22.9188 15.5504C22.9368 15.5504 22.9907 15.5684 23.1166 15.5864L23.6021 15.6763C23.7459 15.6942 23.8358 15.7302 23.8718 15.7662C23.9258 15.8021 23.9437 15.8561 23.9437 15.928C23.9437 15.9999 23.9078 16.0898 23.8358 16.2157C23.7639 16.3416 23.674 16.4495 23.5661 16.5573C23.0806 17.0249 22.4513 17.2766 21.6781 17.2766C21.1926 17.2766 20.761 17.1687 20.3475 16.9709C19.862 16.7192 19.5203 16.3596 19.3045 15.8561C19.1607 15.5144 19.0888 15.1188 19.0888 14.6873C19.0888 14.1838 19.1967 13.7163 19.4124 13.3027C19.6282 12.8892 19.9339 12.5835 20.3475 12.3857C20.7251 12.2059 21.1566 12.098 21.6241 12.098C22.3434 12.098 22.9188 12.2958 23.3683 12.7093C23.6021 12.9251 23.7819 13.1948 23.9078 13.5365C24.0516 13.8781 24.1056 14.2198 24.1056 14.5794C24.1056 14.7233 24.0876 14.8132 24.0336 14.8491C23.9797 14.8851 23.8898 14.9031 23.71 14.9031H20.4733V14.8671ZM22.8109 14.004C22.757 13.7523 22.6671 13.5724 22.5592 13.4286C22.3434 13.1589 22.0377 13.033 21.6601 13.033C21.3724 13.033 21.1207 13.1229 20.9229 13.2847C20.7251 13.4646 20.5992 13.6983 20.5273 14.004H22.8109ZM13.1729 12.098H13.9281C14.1259 12.098 14.3057 12.2598 14.3057 12.4756V16.7192C14.3057 16.917 14.1439 17.0968 13.9281 17.0968H13.1729C12.9751 17.0968 12.7953 16.935 12.7953 16.7192V12.4756C12.7953 12.2598 12.9571 12.098 13.1729 12.098ZM26.0116 17.2047C25.5261 17.2047 25.1305 16.8091 25.1305 16.3236C25.1305 15.8381 25.5261 15.4425 26.0116 15.4425C26.4971 15.4425 26.8927 15.8381 26.8927 16.3236C26.8927 16.8091 26.4971 17.2047 26.0116 17.2047Z" fill="#221A33"/>
<path fill-rule="evenodd" clip-rule="evenodd" d="M15.7442 4.86949C15.2947 4.83352 14.9531 4.90545 14.7373 5.12122C14.5035 5.337 14.4136 5.64268 14.4316 6.09222C14.4316 6.1102 14.4316 6.1102 14.4316 6.12818V6.14616C14.4136 6.5957 14.5215 6.91936 14.7373 7.11716C14.9531 7.31495 15.2767 7.40486 15.7083 7.36889C15.7263 7.36889 15.7442 7.36889 15.7622 7.36889C15.7802 7.36889 15.7802 7.36889 15.7982 7.36889C16.2837 7.36889 16.6793 7.76448 16.6793 8.24998C16.6793 8.73548 16.2837 9.13107 15.7982 9.13107C15.7622 9.13107 15.7263 9.13107 15.6903 9.13107C15.2767 9.11309 14.9531 9.18501 14.7373 9.38281C14.5035 9.59858 14.4136 9.90427 14.4316 10.3358C14.4316 10.3538 14.4316 10.3538 14.4316 10.3718C14.4316 10.8573 14.036 11.2529 13.5505 11.2529C13.065 11.2529 12.6694 10.8573 12.6694 10.3718C12.6694 9.88628 13.065 9.49069 13.5505 9.49069C13.5685 9.49069 13.5685 9.49069 13.5865 9.49069C13.5865 9.49069 13.5865 9.49069 13.6045 9.49069C13.6225 9.49069 13.6404 9.49069 13.6584 9.49069C14.09 9.52666 14.4136 9.43675 14.6294 9.23895C14.8632 9.02318 14.9531 8.7175 14.9351 8.28594C14.9351 8.26796 14.9351 8.24998 14.9351 8.232C14.9351 8.21402 14.9351 8.19604 14.9351 8.17806C14.9531 7.7465 14.8452 7.44082 14.6294 7.22504C14.4136 7.02725 14.09 6.93734 13.6764 6.9733C13.6584 6.9733 13.6225 6.9733 13.6045 6.9733H13.5865C13.101 6.9733 12.7054 6.57771 12.7054 6.09222C12.7054 5.60672 13.101 5.21113 13.5865 5.21113H13.6045C13.6225 5.21113 13.6584 5.21113 13.6764 5.21113C14.1079 5.22911 14.4136 5.15719 14.6294 4.95939C14.8452 4.7616 14.9531 4.43793 14.9351 4.00638C14.9351 3.9884 14.9351 3.97042 14.9351 3.95244C14.9351 3.46694 15.3307 3.07135 15.8162 3.07135C16.3017 3.07135 16.6973 3.46694 16.6973 3.95244C16.6973 4.43793 16.3017 4.83352 15.8162 4.83352C15.7802 4.86949 15.7622 4.86949 15.7442 4.86949Z" fill="#949199"/>
</g>
<defs>
<clipPath id="clip0">
<rect width="27.2238" height="16.7586" fill="white" transform="translate(0.154404 0.5)"/>
</clipPath>
</defs>
</svg>


<svg width="865" height="1080" viewBox="0 0 865 1080" fill="none" xmlns="http://www.w3.org/2000/svg" id="main-background">
<path d="M352.773 569.007C355.755 563.48 363.683 563.481 366.664 569.009L500.417 820.083C507.431 832.428 520.531 840.054 534.725 840.054H666.15C684.354 840.054 695.748 820.36 686.679 804.569L462.631 414.473C458.453 407.199 458.433 398.258 462.578 390.965L698.794 -24.6064C707.77 -40.3963 696.37 -59.9999 678.213 -59.9999L552.325 -59.9999C538.204 -59.9999 525.159 -52.4513 518.118 -40.2057L366.66 238.324C363.67 243.822 355.78 243.821 352.792 238.321L201.511 -40.1896C194.473 -52.4443 181.423 -60 167.295 -60L41.4089 -60C23.254 -60 11.8539 -40.4011 20.8243 -24.6112L256.839 390.829C260.983 398.124 260.96 407.068 256.778 414.341L5.18787 851.931C-3.89076 867.722 7.50282 887.426 25.7119 887.426H157.428C171.619 887.426 184.716 879.804 191.731 867.463L352.773 569.007Z" stroke="#D9FFE0" stroke-width="3"/>
<path d="M773.683 954.536C766.645 942.281 753.595 934.725 739.467 934.725H606.963C588.808 934.725 577.408 954.324 586.379 970.114L671.547 1120.03C678.561 1132.37 691.661 1140 705.855 1140H839.29C857.494 1140 868.888 1120.31 859.819 1104.52L773.683 954.536Z" stroke="#D9FFE0" stroke-width="3"/>
</svg>

<svg width="14" height="14" viewBox="0 0 14 14" fill="none" xmlns="http://www.w3.org/2000/svg" id="cross">
<path d="M7 8.47597L12.524 14L14 12.524L8.47597 7L14 1.47597L12.524 0L7 5.52403L1.47597 0L1.99064e-06 1.47597L5.52403 7L0 12.524L1.47597 14L7 8.47597Z" fill="white"/>
</svg>

<svg width="18" height="12" viewBox="0 0 18 12" fill="none" xmlns="http://www.w3.org/2000/svg" id="burger">
<path d="M0 0H18V2H0V0Z" fill="#142236"/>
<path d="M0 5H18V7H0V5Z" fill="#142236"/>
<path d="M18 10H0V12H18V10Z" fill="#142236"/>
</svg>



  </defs>
</svg>